/* XPM */
static char * debug_xpm[] = {
"48 48 641 2",
"  	c None",
". 	c #111111",
"+ 	c #363636",
"@ 	c #050505",
"# 	c #424242",
"$ 	c #101010",
"% 	c #060606",
"& 	c #141414",
"* 	c #7D6812",
"= 	c #B7B17F",
"- 	c #ADA558",
"; 	c #64540A",
"> 	c #282828",
", 	c #000000",
"' 	c #191200",
") 	c #6B5B0A",
"! 	c #938B3F",
"~ 	c #7F741F",
"{ 	c #372B00",
"] 	c #070605",
"^ 	c #2D2D2D",
"/ 	c #2D2F19",
"( 	c #393A24",
"_ 	c #494830",
": 	c #4C4D3D",
"< 	c #44473E",
"[ 	c #393E31",
"} 	c #373D2E",
"| 	c #474B19",
"1 	c #9E9E5C",
"2 	c #9EA074",
"3 	c #1D2205",
"4 	c #3E3E3E",
"5 	c #323232",
"6 	c #616C42",
"7 	c #93A375",
"8 	c #B7C0A4",
"9 	c #BEC5B4",
"0 	c #AAB09C",
"a 	c #7A876A",
"b 	c #5C6A4E",
"c 	c #485535",
"d 	c #6D732E",
"e 	c #92974B",
"f 	c #2F380B",
"g 	c #3B3B3B",
"h 	c #353536",
"i 	c #12120F",
"j 	c #696C59",
"k 	c #868B70",
"l 	c #A3A87F",
"m 	c #B5BE8E",
"n 	c #C7CBA6",
"o 	c #D4DABF",
"p 	c #CAD5B6",
"q 	c #9CAD89",
"r 	c #768867",
"s 	c #56654B",
"t 	c #404B32",
"u 	c #2F3A0C",
"v 	c #141D01",
"w 	c #333333",
"x 	c #070707",
"y 	c #1F1F1F",
"z 	c #7A7C69",
"A 	c #C4C8AA",
"B 	c #C2C4A9",
"C 	c #BFC0A5",
"D 	c #B8BA9C",
"E 	c #B5B896",
"F 	c #AEB38D",
"G 	c #AAB188",
"H 	c #9CA57C",
"I 	c #8A9870",
"J 	c #6C7A5D",
"K 	c #4D5942",
"L 	c #2F3827",
"M 	c #0C1009",
"N 	c #000100",
"O 	c #848776",
"P 	c #C6C9B1",
"Q 	c #C5C9B3",
"R 	c #C3C7B1",
"S 	c #C4C7B0",
"T 	c #C1C2AB",
"U 	c #BEBEA4",
"V 	c #B8BC99",
"W 	c #B0B48E",
"X 	c #A3A980",
"Y 	c #9EA077",
"Z 	c #8B926A",
"` 	c #747D58",
" .	c #4B573B",
"..	c #323D29",
"+.	c #141710",
"@.	c #020202",
"#.	c #CCD1B7",
"$.	c #CACDB6",
"%.	c #CBCEB9",
"&.	c #CBCFB9",
"*.	c #CACEB9",
"=.	c #C2C5AF",
"-.	c #C1C3A6",
";.	c #858770",
">.	c #8F9675",
",.	c #A2A67D",
"'.	c #91986D",
").	c #858C63",
"!.	c #757E57",
"~.	c #515B3D",
"{.	c #12150D",
"].	c #010101",
"^.	c #CACEB5",
"/.	c #CBCFB8",
"(.	c #CFD2BD",
"_.	c #D3D5C1",
":.	c #D4D6C3",
"<.	c #D2D4C1",
"[.	c #CBCFBA",
"}.	c #C9CDB7",
"|.	c #A5A692",
"1.	c #3C4039",
"2.	c #9B9F7E",
"3.	c #A6AB82",
"4.	c #989D73",
"5.	c #888F65",
"6.	c #7D835C",
"7.	c #6E7552",
"8.	c #363925",
"9.	c #090909",
"0.	c #242424",
"a.	c #080808",
"b.	c #C5C9AD",
"c.	c #C8CDB5",
"d.	c #CDD0BB",
"e.	c #D4D6C1",
"f.	c #D9DAC8",
"g.	c #D9DBCA",
"h.	c #D6D9C5",
"i.	c #D2D6C1",
"j.	c #C8CDB6",
"k.	c #565850",
"l.	c #3E433E",
"m.	c #ABAF8D",
"n.	c #A6AE85",
"o.	c #99A074",
"p.	c #899268",
"q.	c #81855C",
"r.	c #727854",
"s.	c #636B48",
"t.	c #181A15",
"u.	c #A1A48C",
"v.	c #C8CAB0",
"w.	c #C5CAB2",
"x.	c #CFD2BC",
"y.	c #D6D8C4",
"z.	c #DBDCCB",
"A.	c #DCDFCF",
"B.	c #DADCCB",
"C.	c #D6D9C3",
"D.	c #808476",
"E.	c #2E322B",
"F.	c #484E44",
"G.	c #B0B592",
"H.	c #A9B087",
"I.	c #9BA277",
"J.	c #8A9268",
"K.	c #717754",
"L.	c #6A724C",
"M.	c #353A2A",
"N.	c #060605",
"O.	c #606060",
"P.	c #37382D",
"Q.	c #B0B594",
"R.	c #C1C3AB",
"S.	c #C5C9B2",
"T.	c #CED0BB",
"U.	c #D9DBC8",
"V.	c #D9DBC9",
"W.	c #DCDECA",
"X.	c #A0A392",
"Y.	c #393C35",
"Z.	c #444942",
"`.	c #595E55",
" +	c #B4BA94",
".+	c #99A176",
"++	c #81855D",
"@+	c #686F4A",
"#+	c #414731",
"$+	c #616161",
"%+	c #030303",
"&+	c #929674",
"*+	c #BBBE9B",
"=+	c #C0C1A6",
"-+	c #C3C7AF",
";+	c #CACEB8",
">+	c #D0D3BE",
",+	c #D4D5C3",
"'+	c #D7D8C7",
")+	c #D4D7C4",
"!+	c #4C5048",
"~+	c #333730",
"{+	c #494F44",
"]+	c #575C4E",
"^+	c #B5BB93",
"/+	c #A6AC83",
"(+	c #979D73",
"_+	c #868E65",
":+	c #7E825A",
"<+	c #707653",
"[+	c #666C4A",
"}+	c #4A5137",
"|+	c #050403",
"1+	c #1B1B1B",
"2+	c #484C36",
"3+	c #AFB68B",
"4+	c #B1B690",
"5+	c #B9BE9E",
"6+	c #C0C1AA",
"7+	c #C3C7B0",
"8+	c #C8CBB5",
"9+	c #CCCFBA",
"0+	c #CCD0BA",
"a+	c #717467",
"b+	c #2E312B",
"c+	c #454942",
"d+	c #5B6259",
"e+	c #676C5C",
"f+	c #B2B88E",
"g+	c #A1A67D",
"h+	c #8F976D",
"i+	c #858D64",
"j+	c #7A8058",
"k+	c #6B734F",
"l+	c #616746",
"m+	c #4D5139",
"n+	c #0A0806",
"o+	c #131313",
"p+	c #818660",
"q+	c #A4AC80",
"r+	c #ABB18A",
"s+	c #B4B995",
"t+	c #BCBDA1",
"u+	c #C4C6AF",
"v+	c #C9CDB6",
"w+	c #A5A996",
"x+	c #333633",
"y+	c #3A3E39",
"z+	c #4E534A",
"A+	c #4D5449",
"B+	c #656A56",
"C+	c #ACB186",
"D+	c #9CA178",
"E+	c #8B9169",
"F+	c #828960",
"G+	c #757B56",
"H+	c #676F4D",
"I+	c #606746",
"J+	c #4D5239",
"K+	c #0C0C07",
"L+	c #040404",
"M+	c #8F986C",
"N+	c #999F74",
"O+	c #A2A97F",
"P+	c #B3B893",
"Q+	c #B8BC9C",
"R+	c #BEC1A3",
"S+	c #BDBFA7",
"T+	c #474940",
"U+	c #2B2D2A",
"V+	c #4F544B",
"W+	c #63695F",
"X+	c #52564F",
"Y+	c #6E725C",
"Z+	c #A5A87D",
"`+	c #92986E",
" @	c #7B825A",
".@	c #6E7752",
"+@	c #626B48",
"@@	c #5A6243",
"#@	c #474D36",
"$@	c #0B0B07",
"%@	c #3A3A3A",
"&@	c #787F57",
"*@	c #858D62",
"=@	c #8E956B",
"-@	c #A2AA80",
";@	c #A9AF87",
">@	c #B0B58F",
",@	c #B7BB95",
"'@	c #81846C",
")@	c #222421",
"!@	c #353732",
"~@	c #53584E",
"{@	c #5C6155",
"]@	c #464A41",
"^@	c #74775D",
"/@	c #979C72",
"(@	c #898F67",
"_@	c #80855D",
":@	c #747955",
"<@	c #69704E",
"[@	c #5D6646",
"}@	c #555D3F",
"|@	c #424A33",
"1@	c #090A05",
"2@	c #797E57",
"3@	c #7C815A",
"4@	c #858C62",
"5@	c #8C9469",
"6@	c #979D72",
"7@	c #A0A57C",
"8@	c #A7AC84",
"9@	c #9DA27F",
"0@	c #33352D",
"a@	c #2B2D29",
"b@	c #4A4E44",
"c@	c #5E6258",
"d@	c #585D52",
"e@	c #40433C",
"f@	c #75785B",
"g@	c #8B9167",
"h@	c #81875E",
"i@	c #777C57",
"j@	c #6B744F",
"k@	c #616A49",
"l@	c #575E42",
"m@	c #4F573D",
"n@	c #3A412E",
"o@	c #040504",
"p@	c #0E0E0E",
"q@	c #3B3F31",
"r@	c #6D764F",
"s@	c #707752",
"t@	c #7D825B",
"u@	c #828A61",
"v@	c #899066",
"w@	c #8F976B",
"x@	c #979D74",
"y@	c #5C604A",
"z@	c #151816",
"A@	c #3B3C36",
"B@	c #565A4F",
"C@	c #5E6357",
"D@	c #555A4F",
"E@	c #41443A",
"F@	c #737A58",
"G@	c #81865D",
"H@	c #777D57",
"I@	c #6D7350",
"J@	c #646D4B",
"K@	c #596145",
"L@	c #50573D",
"M@	c #495039",
"N@	c #333727",
"O@	c #000101",
"P@	c #393938",
"Q@	c #525642",
"R@	c #626B47",
"S@	c #686F4D",
"T@	c #717753",
"U@	c #787D57",
"V@	c #7F855D",
"W@	c #868D64",
"X@	c #7B805D",
"Y@	c #242520",
"Z@	c #1F201E",
"`@	c #42453D",
" #	c #5D6255",
".#	c #575D53",
"+#	c #4D5347",
"@#	c #3E4237",
"##	c #727753",
"$#	c #767A55",
"%#	c #6D7450",
"&#	c #5C6446",
"*#	c #53593F",
"=#	c #4B5339",
"-#	c #464B36",
";#	c #2B2D20",
">#	c #2F302D",
",#	c #434933",
"'#	c #575F41",
")#	c #5C6646",
"!#	c #656E4A",
"~#	c #6B7350",
"{#	c #727955",
"]#	c #78805A",
"^#	c #454A37",
"/#	c #1B1C1A",
"(#	c #373934",
"_#	c #54574F",
":#	c #5D6258",
"<#	c #4E5249",
"[#	c #42463F",
"}#	c #3B3F34",
"|#	c #69714E",
"1#	c #68704E",
"2#	c #616B49",
"3#	c #4C5339",
"4#	c #464B33",
"5#	c #434734",
"6#	c #1E1F16",
"7#	c #030304",
"8#	c #14150F",
"9#	c #50573C",
"0#	c #545A41",
"a#	c #5C6245",
"b#	c #606948",
"c#	c #666F4B",
"d#	c #5F6747",
"e#	c #20221C",
"f#	c #242422",
"g#	c #3D403A",
"h#	c #5B5F56",
"i#	c #5E6359",
"j#	c #545951",
"k#	c #454842",
"l#	c #3F4536",
"m#	c #636E48",
"n#	c #5D6847",
"o#	c #4B5238",
"p#	c #464B34",
"q#	c #414531",
"r#	c #3E4230",
"s#	c #0F100C",
"t#	c #1D1D1D",
"u#	c #1A1A1A",
"v#	c #13150E",
"w#	c #414733",
"x#	c #464E34",
"y#	c #4A5239",
"z#	c #4F563D",
"A#	c #565C42",
"B#	c #5C6647",
"C#	c #383C2E",
"D#	c #191A16",
"E#	c #2E2F2B",
"F#	c #4A4E46",
"G#	c #5A5D55",
"H#	c #52564A",
"I#	c #454941",
"J#	c #363A32",
"K#	c #3C4332",
"L#	c #596042",
"M#	c #52583F",
"N#	c #4E533B",
"O#	c #474F37",
"P#	c #434932",
"Q#	c #3F4330",
"R#	c #3A3E2E",
"S#	c #323527",
"T#	c #050503",
"U#	c #202020",
"V#	c #2E2E2E",
"W#	c #12140E",
"X#	c #3E412F",
"Y#	c #414530",
"Z#	c #454933",
"`#	c #495037",
" $	c #4E543C",
".$	c #495239",
"+$	c #1F1E1C",
"@$	c #1C1D1A",
"#$	c #333330",
"$$	c #52544C",
"%$	c #555650",
"&$	c #4C4F47",
"*$	c #41443D",
"=$	c #30332D",
"-$	c #3D4432",
";$	c #51593B",
">$	c #495038",
",$	c #464D34",
"'$	c #424632",
")$	c #3E422E",
"!$	c #393D2C",
"~$	c #36392C",
"{$	c #252920",
"]$	c #010002",
"^$	c #181818",
"/$	c #3D402D",
"($	c #404530",
"_$	c #424733",
":$	c #2F3426",
"<$	c #1A1A18",
"[$	c #272A25",
"}$	c #464743",
"|$	c #565852",
"1$	c #494B45",
"2$	c #42433E",
"3$	c #343733",
"4$	c #262823",
"5$	c #3C4230",
"6$	c #454B33",
"7$	c #3B3E2C",
"8$	c #373B2A",
"9$	c #333729",
"0$	c #303427",
"a$	c #121311",
"b$	c #2F2F2F",
"c$	c #343829",
"d$	c #363B2A",
"e$	c #3B3E2D",
"f$	c #3D4130",
"g$	c #1C1F1A",
"h$	c #191917",
"i$	c #484A43",
"j$	c #545650",
"k$	c #444642",
"l$	c #353936",
"m$	c #272925",
"n$	c #3D402F",
"o$	c #3E442E",
"p$	c #3B3F2C",
"q$	c #383C2A",
"r$	c #313629",
"s$	c #2F342A",
"t$	c #292C22",
"u$	c #060707",
"v$	c #0C0C0C",
"w$	c #232323",
"x$	c #252720",
"y$	c #30342A",
"z$	c #313429",
"A$	c #33382B",
"B$	c #2E3025",
"C$	c #151614",
"D$	c #474B43",
"E$	c #4B4C46",
"F$	c #40413C",
"G$	c #353833",
"H$	c #282A26",
"I$	c #1F231F",
"J$	c #393E2D",
"K$	c #363928",
"L$	c #333828",
"M$	c #2E3329",
"N$	c #2D3127",
"O$	c #2D3027",
"P$	c #141512",
"Q$	c #171717",
"R$	c #1A1A16",
"S$	c #2C2F27",
"T$	c #2C2E27",
"U$	c #1F211D",
"V$	c #181915",
"W$	c #20211C",
"X$	c #33342F",
"Y$	c #464842",
"Z$	c #43463F",
"`$	c #3A3D37",
" %	c #2F312E",
".%	c #212220",
"+%	c #242620",
"@%	c #34392C",
"#%	c #303429",
"$%	c #2D3229",
"%%	c #2C3027",
"&%	c #2B2D27",
"*%	c #2A2D27",
"=%	c #060706",
"-%	c #272B24",
";%	c #2B2F27",
">%	c #1D201D",
",%	c #1C1E19",
"'%	c #1E201C",
")%	c #2C2E2A",
"!%	c #3C3E38",
"~%	c #3C3D39",
"{%	c #353633",
"]%	c #272725",
"^%	c #1C1C19",
"/%	c #252621",
"(%	c #2F3228",
"_%	c #2C2D27",
":%	c #2A2C27",
"<%	c #2A2B27",
"[%	c #292A27",
"}%	c #262A24",
"|%	c #11110F",
"1%	c #545454",
"2%	c #161714",
"3%	c #272824",
"4%	c #21231E",
"5%	c #141613",
"6%	c #171814",
"7%	c #191B17",
"8%	c #262724",
"9%	c #32352F",
"0%	c #31332F",
"a%	c #1E201D",
"b%	c #1A1B19",
"c%	c #272923",
"d%	c #2C2B28",
"e%	c #2A2927",
"f%	c #272927",
"g%	c #282A25",
"h%	c #272724",
"i%	c #1D1D1A",
"j%	c #121212",
"k%	c #1A1C17",
"l%	c #0C0C0A",
"m%	c #141513",
"n%	c #1F221D",
"o%	c #272823",
"p%	c #262623",
"q%	c #1D1E1C",
"r%	c #181817",
"s%	c #191817",
"t%	c #292A24",
"u%	c #282825",
"v%	c #282924",
"w%	c #282623",
"x%	c #292823",
"y%	c #1D1D19",
"z%	c #0D0D0C",
"A%	c #151515",
"B%	c #11120F",
"C%	c #171915",
"D%	c #0F110F",
"E%	c #080907",
"F%	c #1A1B17",
"G%	c #292824",
"H%	c #282723",
"I%	c #252620",
"J%	c #191915",
"K%	c #030403",
"L%	c #010201",
"M%	c #020201",
"N%	c #22231D",
"O%	c #272722",
"P%	c #22221D",
"Q%	c #11110E",
"R%	c #0A0A0A",
"S%	c #0E0F0D",
"T%	c #1F201D",
"U%	c #1A1C19",
"V%	c #0F110E",
"W%	c #353535",
"X%	c #383838",
"                                                                                                ",
"                                                                                                ",
"                                                                                                ",
"                                  .                                                             ",
"                                + @                                                             ",
"                              # $                                                               ",
"                              %                                                                 ",
"                              &         * = - ;                                                 ",
"                              > ,     ' ) ! ~ { ]                                               ",
"                              ^ , ,   / ( _ : < [ } | 1 2 3             4                       ",
"                              5 ,     6 7 8 9 0 a b c d e f           g                         ",
"                              h i j k l m n o p q r s t u v ,         w x                       ",
"                              y z A B C D E F G H I J K L M N           x                       ",
"                              O P Q R S T U V W X Y Z `  ...+.        @.                        ",
"                              #.$.%.&.*.Q =.-.;.>.,.'.).!.~.{.      > ].                        ",
"                            ^./.(._.:.<.[.}.|.1.2.3.4.5.6.7.8.  9.0.a.                          ",
"                          b.c.d.e.f.g.h.i.j.k.l.m.n.o.p.q.r.s.t.y % ,                           ",
"                  ].,   u.v.w.x.y.z.A.B.C.D.E.F.G.H.I.J.q.K.L.M.N., , ,                         ",
"              O.y , , P.Q.R.S.T.e.U.V.W.X.Y.Z.`. +n..+p.++K.@+#+, , ,                           ",
"            $+%+,     &+*+=+-+;+>+,+'+)+!+~+{+]+^+/+(+_+:+<+[+}+|+, ,                           ",
"          1+].      2+3+4+5+6+7+8+9+0+a+b+c+d+e+f+g+h+i+j+k+l+m+n+,                             ",
"        o+          p+q+r+s+t+6+u+v+w+x+y+z+A+B+C+D+E+F+G+H+I+J+K+,                             ",
"        # L+        M+N+O+r+P+Q+R+S+T+U+V+W+X+Y+Z+`+i+ @.@+@@@#@$@,                             ",
"        %@L+      &@*@=@o.-@;@>@,@'@)@!@~@{@]@^@/@(@_@:@<@[@}@|@1@,                             ",
"        5 ,       2@3@4@5@6@7@8@9@0@a@b@c@d@e@f@g@h@i@j@k@l@m@n@o@,                             ",
"        p@      q@r@s@t@u@v@w@x@y@z@A@B@C@D@E@F@G@H@I@J@K@L@M@N@O@,                             ",
"              P@Q@R@S@T@U@V@W@X@Y@Z@`@ #.#+#@###$#%#J@&#*#=#-#;#, ,                             ",
"              >#,#'#)#!#~#{#]#^#/#(#_#:#<#[#}#|#1#2#K@*#3#4#5#6#7#p@].                          ",
"            %@8#,#9#0#a#b#c#d#e#f#g#h#i#j#k#l#m#n#l@L@o#p#q#r#s#, t#p@                          ",
"            u#v#w#x#y#z#A#B#C#D#E#F#G#H#I#J#K#L#M#N#O#P#Q#R#S#T#, 9.U#,                         ",
"          V#].W#X#Y#Z#`# $.$+$@$#$$$%$&$*$=$-$;$>$,$'$)$!$~${$]$, , t#L+                        ",
"        ^$].    M.!$/$($_$:$<$[$}$|$1$2$3$4$5$6$q#r#7$8$9$0$a$, , , , ,                         ",
"        b$      :$c$d$e$f$g$h$a@i$j$&$k$l$m$n$o$p$q$c$r$s$t$u$, ,   v$@.                        ",
"        w$,     x$y$z$A$B$C$@$=$D$E$F$G$H$I$J$K$L$r$M$N$O$P$, ,   a.Q$,                         ",
"        9.,     R$S$T$M$U$V$W$X$Y$Z$`$ %.%+%@%#%$%%%&%*%+%=%, ,   ^$a.                          ",
"        .         -%&%;%>%,%'%)%!%~%{%]%^%/%(%_%:%<%[%}%|%, , ,                                 ",
"      1%$         2%3%4%5%6%7%8%9%0%H$a%b%c%d%e%f%g%h%i%j%, ,                                   ",
"                    k%k%%+l%m%n%o%p%q%r%s%t%u%v%w%x%y%z%A%, ,                                   ",
"                          N =%B%V$C%D%E%F%G%H%H%I%J%K%9.Q$, ,                                   ",
"                            , , L%M%, @.N%O%x$P%Q%@., R%j%, ,                                   ",
"                                , , , S%T%U%V%K%,     . @.  ,                                   ",
"                                      =%=%@.        u#W%].                                      ",
"                                                    X%@ ,                                       ",
"                                                  w$v$                                          ",
"                                                  ,                                             ",
"                                                                                                ",
"                                                                                                ",
"                                                                                                "};
