/* XPM */
static char * dll_xpm[] = {
"48 48 316 2",
"  	c None",
". 	c #281E28",
"+ 	c #1E151D",
"@ 	c #3F3841",
"# 	c #1E151E",
"$ 	c #2B202B",
"% 	c #2E222E",
"& 	c #4F3B4F",
"* 	c #523D52",
"= 	c #413642",
"- 	c #4A414D",
"; 	c #827787",
"> 	c #4F4952",
", 	c #504A53",
"' 	c #4A3649",
") 	c #574257",
"! 	c #594459",
"~ 	c #5D485E",
"{ 	c #584358",
"] 	c #463C48",
"^ 	c #4B424D",
"/ 	c #7D6F81",
"( 	c #837989",
"_ 	c #89818F",
": 	c #8A8390",
"< 	c #4E4751",
"[ 	c #4B374B",
"} 	c #634E64",
"| 	c #655066",
"1 	c #675369",
"2 	c #68546A",
"3 	c #3E313E",
"4 	c #473D49",
"5 	c #7E7082",
"6 	c #7D6E81",
"7 	c #847A89",
"8 	c #88808E",
"9 	c #ADB4B6",
"0 	c #757A79",
"a 	c #6B586C",
"b 	c #6D5B6F",
"c 	c #716075",
"d 	c #78687C",
"e 	c #857C8B",
"f 	c #8B8491",
"g 	c #8F8A96",
"h 	c #D9DEDC",
"i 	c #B4BABA",
"j 	c #626467",
"k 	c #271C27",
"l 	c #5B465B",
"m 	c #665167",
"n 	c #644F65",
"o 	c #6E5C70",
"p 	c #6C596D",
"q 	c #756478",
"r 	c #77667A",
"s 	c #7A6A7D",
"t 	c #7F7183",
"u 	c #8C8692",
"v 	c #918D98",
"w 	c #8B8592",
"x 	c #A9AFB2",
"y 	c #CAD0CE",
"z 	c #ABB1B3",
"A 	c #9B9DA4",
"B 	c #555259",
"C 	c #2C202C",
"D 	c #675268",
"E 	c #6D5A6E",
"F 	c #766579",
"G 	c #7F7284",
"H 	c #857B8A",
"I 	c #877E8C",
"J 	c #928F99",
"K 	c #B1B7B8",
"L 	c #BDC5C4",
"M 	c #A3A7AB",
"N 	c #95939C",
"O 	c #483E4A",
"P 	c #150E15",
"Q 	c #241A24",
"R 	c #201720",
"S 	c #543F54",
"T 	c #604B61",
"U 	c #79697C",
"V 	c #867D8C",
"W 	c #908C97",
"X 	c #9898A0",
"Y 	c #B6BDBD",
"Z 	c #B6BEBE",
"` 	c #9EA0A6",
" .	c #322632",
"..	c #171117",
"+.	c #3B2A3B",
"@.	c #362635",
"#.	c #4C384C",
"$.	c #554155",
"%.	c #5F4A60",
"&.	c #624D63",
"*.	c #533E53",
"=.	c #5C475C",
"-.	c #8D8793",
";.	c #A7ACAF",
">.	c #C4CCCA",
",.	c #A2A6AB",
"'.	c #877F8D",
").	c #78677B",
"!.	c #8D8894",
"~.	c #97969E",
"{.	c #97979F",
"].	c #9D9FA5",
"^.	c #BFC7C6",
"/.	c #9999A1",
"(.	c #423042",
"_.	c #070407",
":.	c #150F15",
"<.	c #4D394D",
"[.	c #5A455A",
"}.	c #503C50",
"|.	c #AFB6B6",
"1.	c #EEF0F0",
"2.	c #CFD6D4",
"3.	c #C2CAC8",
"4.	c #B8C0BF",
"5.	c #CCD2D0",
"6.	c #C3CBC9",
"7.	c #8F8B96",
"8.	c #9C9EA4",
"9.	c #A1A5AA",
"0.	c #5E495F",
"a.	c #382838",
"b.	c #060406",
"c.	c #231923",
"d.	c #3C2B3C",
"e.	c #4E3A4E",
"f.	c #F4F6F5",
"g.	c #C5CCCB",
"h.	c #AAB0B2",
"i.	c #9FA2A7",
"j.	c #9B9CA3",
"k.	c #BEC6C5",
"l.	c #94929B",
"m.	c #999AA1",
"n.	c #A4A8AC",
"o.	c #251B25",
"p.	c #3D2D3D",
"q.	c #DBE0DE",
"r.	c #D4DBD9",
"s.	c #A8AEB1",
"t.	c #A1A4A9",
"u.	c #A4A9AD",
"v.	c #B2B8B9",
"w.	c #B0B6B7",
"x.	c #D1D8D6",
"y.	c #8C8E8E",
"z.	c #412F41",
"A.	c #D8DDDB",
"B.	c #C7CECC",
"C.	c #A5AAAE",
"D.	c #736276",
"E.	c #6A576B",
"F.	c #A0A3A8",
"G.	c #A6ABAE",
"H.	c #BAC2C1",
"I.	c #626568",
"J.	c #342834",
"K.	c #807385",
"L.	c #453245",
"M.	c #2A1E2A",
"N.	c #ADB3B5",
"O.	c #A8ADB0",
"P.	c #AEB5B6",
"Q.	c #B3B9BA",
"R.	c #B9C1C0",
"S.	c #C0C8C7",
"T.	c #C8CFCD",
"U.	c #56535A",
"V.	c #332733",
"W.	c #CCD3D1",
"X.	c #8E8995",
"Y.	c #7B6C7F",
"Z.	c #2F212F",
"`.	c #140E14",
" +	c #443D46",
".+	c #B5BBBB",
"++	c #ACB2B4",
"@+	c #93909A",
"#+	c #493F4A",
"$+	c #E3E7E6",
"%+	c #837888",
"&+	c #2E202D",
"*+	c #0F0B0F",
"=+	c #65696B",
"-+	c #B7BFBF",
";+	c #BCC4C3",
">+	c #C6CDCC",
",+	c #D6DBDA",
"'+	c #95949D",
")+	c #362936",
"!+	c #352835",
"~+	c #E0E5E3",
"{+	c #9A9BA2",
"]+	c #191219",
"^+	c #000000",
"/+	c #BBC3C2",
"(+	c #CBD1CF",
"_+	c #D2D9D7",
":+	c #0C080C",
"<+	c #9EA1A7",
"[+	c #69556A",
"}+	c #0E0A0E",
"|+	c #606365",
"1+	c #CDD4D2",
"2+	c #382B38",
"3+	c #6F5D71",
"4+	c #6A6E6E",
"5+	c #CED5D3",
"6+	c #181118",
"7+	c #392C3A",
"8+	c #DBE1DF",
"9+	c #120D12",
"0+	c #6B6F70",
"a+	c #93919B",
"b+	c #614C62",
"c+	c #3C2F3D",
"d+	c #705E72",
"e+	c #756377",
"f+	c #7B6B7E",
"g+	c #201620",
"h+	c #6D7171",
"i+	c #D3DAD8",
"j+	c #392D39",
"k+	c #030203",
"l+	c #3A2D3A",
"m+	c #59595D",
"n+	c #7C6D80",
"o+	c #6D7272",
"p+	c #DADFDD",
"q+	c #817686",
"r+	c #463346",
"s+	c #2B1F2B",
"t+	c #0B070B",
"u+	c #7C807F",
"v+	c #D7DCDB",
"w+	c #B5BCBC",
"x+	c #3A2939",
"y+	c #171017",
"z+	c #5B5B60",
"A+	c #89828F",
"B+	c #707474",
"C+	c #DEE3E1",
"D+	c #E2E6E5",
"E+	c #372737",
"F+	c #0D080D",
"G+	c #4F4852",
"H+	c #0A060A",
"I+	c #666969",
"J+	c #717675",
"K+	c #D0D7D5",
"L+	c #DFE4E2",
"M+	c #F2F4F3",
"N+	c #3F2E3F",
"O+	c #535058",
"P+	c #96959E",
"Q+	c #E7EBE9",
"R+	c #221721",
"S+	c #4B474E",
"T+	c #5E6162",
"U+	c #6B6E6F",
"V+	c #6E7373",
"W+	c #E1E6E4",
"X+	c #E8ECEB",
"Y+	c #E6E9E7",
"Z+	c #F0F2F1",
"`+	c #FFFFFF",
" @	c #473447",
".@	c #545058",
"+@	c #918E99",
"@@	c #EBEEED",
"#@	c #E6EAE8",
"$@	c #FDFDFD",
"%@	c #4E4C53",
"&@	c #E9EDEC",
"*@	c #DCE2E0",
"=@	c #F1F3F2",
"-@	c #020202",
";@	c #59585E",
">@	c #E5E8E6",
",@	c #EFF1F0",
"'@	c #F6F8F7",
")@	c #5D5E62",
"!@	c #FAFBFB",
"~@	c #3A2E3B",
"{@	c #5B5B5F",
"]@	c #7B7F7E",
"^@	c #322331",
"/@	c #676B6C",
"(@	c #040204",
"_@	c #5B5A5F",
":@	c #726176",
"<@	c #715F73",
"[@	c #1C141C",
"}@	c #110C11",
"|@	c #080508",
"1@	c #1F161F",
"2@	c #3D313E",
"3@	c #999999",
"4@	c #040304",
"5@	c #211721",
"6@	c #7A7D7C",
"7@	c #090709",
"8@	c #160F16",
"9@	c #372A37",
"0@	c #080608",
"a@	c #0B080B",
"                                                                                                ",
"                                          . +                   @                               ",
"                                    # $ % & * =             - - ; > ,                           ",
"                                    % ' ) ! ~ { -       ] ^ / ( ( _ : <                         ",
"                                  % [ { ) } | 1 2 3 4 4 5 6 7 7 : : 8 9 0                       ",
"                                % ' ! { | } a b c d d / / e ( f f g _ h i j                     ",
"                              k [ l ! m n o p q r s 5 t 7 7 u : v w x y z A B                   ",
"                            C & l { D m b E F F 6 / G H I f w J g J K L M N I O                 ",
"                  P Q R $ C S ! ~ 1 } m T D 1 q U ; 7 V w u v W X J Y Z ` g G E  .              ",
"                ..+.@.#.#.$.{ %.&.*.=.-.;.>.>.,.'.).'.f !.W J ~.{.].` ^./._ d &.(._.            ",
"              :.+.+.<.[ [.{ } }.[.|.1.2.3.Z Y 4.5.6._ -.7.J {.X ` 8.9.;.,./ 0.a.b.              ",
"              c.d.e.#.l ) n a.X f.g.K h.M i.j./.X i.k.v l.~.m.8.` M n.z z ^.z |.4               ",
"              o.& <.[.{ n p.q.r.i s.9.j.N 7.f '.7 ( '.m./.j.A t.n.u.z x v.w.L L x.y.            ",
"              % & l =.} z.A.B.|.C.8.l.-.V G U D.o E.a 1 F.].,.M G.x z K v.H.Z ^.k.y I.          ",
"              J.! ~ | [ q.g.|.M /.W '.K.F b n [.& L.p.M.d N.9.O.s.P.v.Q.R.Z S.L T.B.x U.        ",
"              V.} | [ Q.W.P.,./.X.7 Y.o &.S (.Z.`.b.     +N.z O.w.K .+4.H.^.k.T.y T.++@+#+      ",
"            V.| } } K.$+K n.X !.%+).a [.' &+*+            =+s.K |.Y -+;+k.S.y >+,+g.h.'+/ )+    ",
"          !+m n o [ ~+R.s.{+g 7 r 1 ) p.]+^+              =+v.w.R.Z /+L >.T.(+_+r.3.h.l.G 0.:+  ",
"        J.D n b | 8 A.9 <+J I d [+$.+.}+                |+K v.4.Y ^.k.g.B.1+_+1+3./+s.l.G &.*+  ",
"    V.2+1 | 3+p 2 H.L C.~.: 6 E ) +.}+                  4+K R.Z ^.L B.>+5+x.>.4.w.O.u.@+5 &.6+  ",
"    7+m 1 3+E d &.8+v.<+W ; c ~ (.9+                    0+R.4.S.k.y g.x.5.;+Q.x t.m.a+W / b+6+  ",
"    c+[+b d+U e+6 q.x X : f+1 #.g+                    h+-+H.^.S.T.>+i+y R.P.u.A a+u H 5 U %.:.  ",
"  j+a E D.).d f+!.2.C.N 7 c l @.k+                    h+;+k.S.y T._+1+H.9 ,.X 7.I G q p } ! `.  ",
"  l+E.e+r Y./ t / ,+M v t [+#.6+                    h+L ;+>+T.(+2._+3.K M {.!.( U b &.*.z.k b.  ",
"  m+c c n+6 ; 7 Y.2.n.!.f+b++.k+                  o+^.L B.>+W.5+x.p+R.O.{+X.q+F 2 [.r+s+t+      ",
"    u+5 f+; ( _ V x N.!.r [.k                   o+S.L B.g.1+1+r.h v+w+t.J e ).D S x+y+          ",
"      z+G 7 _ f X.A+T.7.q S :.                B+^.k.T.B.2.5+v+,+C+D+.+<+-.6 a S E+F+            ",
"        G+f w g g @+{+9.r }.H+            I+J+k.S.B.>+K+1+A.v+L+C+M+H.A _ F %.N+}+              ",
"        O+: v 7.P+P+{+F.W z.^+          h+;+L >.T.(+2.5+p+,+~+L+Q+1.v+F._ d+*.R+                ",
"      S+f J g ~.~.8.A t.x H.Z T+U+4+V+h+^.;+>+B.W.5+K+h v+W+~+X+Y+Z+`+++u 3+ @b.                ",
"      .@+@W X P+].8.9.,.O.x N.Q.K R.Z ^.L B.>+5.1+_+A.h W+L+@@#@Z+M+$@3./.e+r+^+                ",
"    %@W v {.{.<+A M M x O.w.K Q.R.4.S.k.y g.2.5+r.v+q.~+W+&@#@M+M+`+k.R.|.%+%                   ",
"    U.J X X ` 8.n.,.h.x |.w.Y -+H.^.k.T.>+2.1+A.A.*@L+$+X+@@=@M+`+^.Z N.,.X n -@                ",
"    ;@~.m.].` ,.9.++s.K K -+Z ;+k.S.y T.K+2.p+*@W+>@=@,@Z+,@'@`+;+-+9 t.'+X.%+P                 ",
"      )@A A ].G.w+C.v.w.4.Y L ;+>+T.(+2.x.*@_+6.;+R.R.x.X+`+!@;+Z 9 t.{.-.q+).~@                ",
"      {@].Y K+5.>.6.i H.Z ^.k.g.>+W.5+x.*@y H.Q.h.G.M n.s.L 3.Y z 9.{.!.; e+| S `.              ",
"        ]@g.w+9 ;.9.z ;+S.L B.>+1+1+r.*@y -+9 n.j.N v g v ~.;.K F.'+-.; F D *.^@-@              ",
"          /@u.8.{.+@( >+S.T.B.2.5+v+p+_+H.9 9.{.g V K.n+U Y.; @+m.u q+e+D S E+(@                ",
"            _@7._ %+:@,._+>+K+1+A.A.W+^.v.n.{.-.%+).E n 0.[.0.E.t e D.| *.E+_.                  ",
"              < s <@0.q D+2.5+p+v+Q+1+Z s.j.g %+F 1 { r+[@}@|@:+1@~@a & ^@(@                    ",
"                2@l z.(.3@A.~+W+$+$+^.|.F.@+V d 1 S a.:+            }@+ 4@                      ",
"                  5@}+^+  6@^.k./+;+/+s./.w / p { a.|@                                          ",
"                            j G.O.G.C.u.@+H D.T (.7@                                            ",
"                              B +@@+J W g 5 E.& 8@                                              ",
"                                #+/ / 6 Y.U b++.(@                                              ",
"                                  9@T %.%.0.) 8@                                                ",
"                                    0@}+}+:+a@-@                                                ",
"                                                                                                "};
