/* XPM */
static char * edit_xpm[] = {
"48 48 362 2",
"  	c None",
". 	c #020204",
"+ 	c #CA660C",
"@ 	c #DE6A04",
"# 	c #FE9A4C",
"$ 	c #F6B29C",
"% 	c #FE9644",
"& 	c #FE8A24",
"* 	c #4E2604",
"= 	c #5E5E5C",
"- 	c #8A8A8C",
"; 	c #7E7A74",
"> 	c #FE7E04",
", 	c #2E1604",
"' 	c #BEBEBC",
") 	c #C2C2C4",
"! 	c #EEEEEC",
"~ 	c #AAAAAC",
"{ 	c #C25604",
"] 	c #FE8204",
"^ 	c #F27A04",
"/ 	c #0E0604",
"( 	c #DADADC",
"_ 	c #F67A04",
": 	c #C25A04",
"< 	c #120604",
"[ 	c #BABABC",
"} 	c #EAEAEA",
"| 	c #1A0E04",
"1 	c #703005",
"2 	c #924A04",
"3 	c #E8E8E8",
"4 	c #CE6204",
"5 	c #585445",
"6 	c #FEF2E4",
"7 	c #FEE6CC",
"8 	c #FED6B4",
"9 	c #FFFFFF",
"0 	c #FEA654",
"a 	c #CB8036",
"b 	c #CACACC",
"c 	c #AEAEB4",
"d 	c #8E8E8C",
"e 	c #000000",
"f 	c #BE5604",
"g 	c #120A04",
"h 	c #FFF9D5",
"i 	c #FFF8CD",
"j 	c #E4D49F",
"k 	c #FEA65C",
"l 	c #C6C6C4",
"m 	c #9E9EA4",
"n 	c #BE0204",
"o 	c #120204",
"p 	c #FFFEDD",
"q 	c #FFFED8",
"r 	c #FFFCD7",
"s 	c #FFF5D2",
"t 	c #FFFDE7",
"u 	c #E7D69D",
"v 	c #FEF2EC",
"w 	c #FEEEE4",
"x 	c #A2A2A4",
"y 	c #4E4E4C",
"z 	c #FFFDD5",
"A 	c #FFFCCD",
"B 	c #FFF5CF",
"C 	c #FFF1C0",
"D 	c #FFF3CA",
"E 	c #FFF0C2",
"F 	c #FFF9D7",
"G 	c #FEE2BC",
"H 	c #FEAA4C",
"I 	c #FEAA5C",
"J 	c #FFFEEF",
"K 	c #FFF6CF",
"L 	c #FFEEBA",
"M 	c #FFEFC5",
"N 	c #FFECB2",
"O 	c #6E6E6C",
"P 	c #FFFEF5",
"Q 	c #FFFEE0",
"R 	c #FFFCDF",
"S 	c #FFF5D5",
"T 	c #FFF2CD",
"U 	c #020A0C",
"V 	c #817650",
"W 	c #FFFEE8",
"X 	c #FFFBDF",
"Y 	c #FFF6D5",
"Z 	c #FFF5CD",
"` 	c #060604",
" .	c #FFFDDF",
"..	c #FFFADA",
"+.	c #FFF8D8",
"@.	c #FFF6D0",
"#.	c #FFF1BA",
"$.	c #FFECB8",
"%.	c #EE7604",
"&.	c #FFFBCF",
"*.	c #FFF9E2",
"=.	c #FFF9E5",
"-.	c #FFF7DA",
";.	c #FFF2CA",
">.	c #FFF6DA",
",.	c #FFF7D7",
"'.	c #FFFCF5",
").	c #FFF8DD",
"!.	c #020604",
"~.	c #FFF2C5",
"{.	c #FFF8D2",
"].	c #FFF9DD",
"^.	c #FFF6D2",
"/.	c #FFF7C5",
"(.	c #FFEDB8",
"_.	c #FEAE64",
":.	c #FFF4C2",
"<.	c #050000",
"[.	c #60583B",
"}.	c #FFF6CD",
"|.	c #FFF4C8",
"1.	c #94937D",
"2.	c #877D5C",
"3.	c #F5C3A1",
"4.	c #FED29C",
"5.	c #948D75",
"6.	c #968E76",
"7.	c #999677",
"8.	c #918763",
"9.	c #060000",
"0.	c #D19B83",
"a.	c #FFD6BF",
"b.	c #94907B",
"c.	c #969282",
"d.	c #998B6A",
"e.	c #A19A82",
"f.	c #AEAB8D",
"g.	c #ADA176",
"h.	c #070000",
"i.	c #FFB787",
"j.	c #948D74",
"k.	c #968D70",
"l.	c #999074",
"m.	c #A1977A",
"n.	c #AEA384",
"o.	c #C0B492",
"p.	c #D4CDAC",
"q.	c #D0C18D",
"r.	c #080000",
"s.	c #A25F3C",
"t.	c #D28B6C",
"u.	c #FFE0CC",
"v.	c #FFF2E3",
"w.	c #96937D",
"x.	c #999179",
"y.	c #A19A81",
"z.	c #AEAA98",
"A.	c #C0B8A0",
"B.	c #D4CBAE",
"C.	c #E6E0BD",
"D.	c #F3F2CD",
"E.	c #E2D199",
"F.	c #DA9573",
"G.	c #FFD9BC",
"H.	c #FCCFB7",
"I.	c #E27204",
"J.	c #948E79",
"K.	c #968F75",
"L.	c #A1997F",
"M.	c #AEA78B",
"N.	c #C0B698",
"O.	c #D4CBB1",
"P.	c #E6DCC0",
"Q.	c #F3E9CA",
"R.	c #FAF4D5",
"S.	c #FEFDDE",
"T.	c #090000",
"U.	c #FFEBDA",
"V.	c #FFF1E1",
"W.	c #FFF3E5",
"X.	c #FFEEDF",
"Y.	c #948E7B",
"Z.	c #969080",
"`.	c #999278",
" +	c #AEA58B",
".+	c #D4C7A1",
"++	c #E6D8AE",
"@+	c #F3E4B8",
"#+	c #FAEEC6",
"$+	c #FEF7D1",
"%+	c #FFF3E3",
"&+	c #FFF0E1",
"*+	c #FAC5A6",
"=+	c #F1AD8B",
"-+	c #968F7D",
";+	c #999584",
">+	c #A19D8B",
",+	c #AEA99A",
"'+	c #C0BBA6",
")+	c #D4CCB5",
"!+	c #E6DFC7",
"~+	c #F3E6C0",
"{+	c #FAF3CD",
"]+	c #FEF5D4",
"^+	c #FFF9D2",
"/+	c #FFF9D0",
"(+	c #A56240",
"_+	c #FFE3D0",
":+	c #FFF2E2",
"<+	c #FFF0E0",
"[+	c #FFEBD6",
"}+	c #FFE1C7",
"|+	c #F6C3AF",
"1+	c #EAA682",
"2+	c #C07E62",
"3+	c #948B6B",
"4+	c #99937B",
"5+	c #AEA894",
"6+	c #C0BBAC",
"7+	c #D4CFB7",
"8+	c #E6DEBD",
"9+	c #F3EDD2",
"0+	c #FAF4DD",
"a+	c #FEF8E1",
"b+	c #FFFAD0",
"c+	c #F1BFA4",
"d+	c #FFE9D7",
"e+	c #FFE1C8",
"f+	c #FCD3B5",
"g+	c #F6BEA3",
"h+	c #A96C51",
"i+	c #96907B",
"j+	c #A19A84",
"k+	c #C0B590",
"l+	c #E6E0CB",
"m+	c #FAF1D5",
"n+	c #FEF5D9",
"o+	c #FFF4D5",
"p+	c #FFF9DF",
"q+	c #FFFEDA",
"r+	c #0B0000",
"s+	c #FFF1E2",
"t+	c #FFEAD8",
"u+	c #FFDDC6",
"v+	c #FBCFB7",
"w+	c #F3AB86",
"x+	c #82523E",
"y+	c #948C76",
"z+	c #96907D",
"A+	c #999484",
"B+	c #A19B83",
"C+	c #AEA99D",
"D+	c #C0BBAD",
"E+	c #D4CEC5",
"F+	c #E6DFD7",
"G+	c #FEF3C1",
"H+	c #FFF7D0",
"I+	c #170000",
"J+	c #FFE5CE",
"K+	c #FFEEDC",
"L+	c #FFECD8",
"M+	c #FFE2C6",
"N+	c #FBD0B8",
"O+	c #F7BC9F",
"P+	c #F2AD89",
"Q+	c #E8A480",
"R+	c #949181",
"S+	c #999174",
"T+	c #A19B89",
"U+	c #C0BAB3",
"V+	c #D4C498",
"W+	c #E6D4A5",
"X+	c #F3EBE9",
"Y+	c #FAF4D8",
"Z+	c #FEF7DC",
"`+	c #FFF7DF",
" @	c #FFFBD0",
".@	c #EBD89C",
"+@	c #0F0000",
"@@	c #FFDFC8",
"#@	c #FCD2B5",
"$@	c #F7BD9F",
"%@	c #F1AE8B",
"&@	c #EAA37E",
"*@	c #948766",
"=@	c #A19C8B",
"-@	c #AEA996",
";@	c #C0BBAA",
">@	c #D4CEC6",
",@	c #E6DCB4",
"'@	c #F3E0AF",
")@	c #FAF4E2",
"!@	c #FEF5CF",
"~@	c #FFFEE2",
"{@	c #627274",
"]@	c #FCCFB6",
"^@	c #F3AC88",
"/@	c #EBA47F",
"(@	c #94917B",
"_@	c #99947E",
":@	c #D4CFB5",
"<@	c #E6E0CE",
"[@	c #F3ECE3",
"}@	c #FAF4E0",
"|@	c #FFFADD",
"1@	c #040000",
"2@	c #F9C2A6",
"3@	c #F3AC86",
"4@	c #723204",
"5@	c #383322",
"6@	c #969696",
"7@	c #99968E",
"8@	c #A19D90",
"9@	c #AEA589",
"0@	c #C0B99E",
"a@	c #D4D1CB",
"b@	c #E6E0C4",
"c@	c #F3EDCF",
"d@	c #FEF8E4",
"e@	c #FFFADF",
"f@	c #545454",
"g@	c #92A2A4",
"h@	c #9E6140",
"i@	c #491D00",
"j@	c #3A3523",
"k@	c #A1A1A1",
"l@	c #AEAB96",
"m@	c #D4CCAC",
"n@	c #E6E0C7",
"o@	c #F3EAC6",
"p@	c #FAF2D5",
"q@	c #FEF6D9",
"r@	c #FFFAE5",
"s@	c #070808",
"t@	c #444444",
"u@	c #C67E54",
"v@	c #423D28",
"w@	c #C1C1C1",
"x@	c #D4D0C0",
"y@	c #E6DFC2",
"z@	c #F3E0B6",
"A@	c #FAF2CD",
"B@	c #FEF5D1",
"C@	c #262A29",
"D@	c #000003",
"E@	c #3F1A00",
"F@	c #504931",
"G@	c #E7E7E7",
"H@	c #F3EFDC",
"I@	c #FAF3EA",
"J@	c #FEF9EC",
"K@	c #FFF5C8",
"L@	c #FFFEEA",
"M@	c #2E3736",
"N@	c #5B5438",
"O@	c #FAFAFA",
"P@	c #FEF7EC",
"Q@	c #FFF9EA",
"R@	c #08090A",
"S@	c #5F573A",
"T@	c #DED1A5",
"U@	c #0D0000",
"                                                                                                ",
"                                                                                                ",
"                                                                    . . . . .                   ",
"                                                                . . + + + + + . .               ",
"                                                              . + + @ # # $ % & + *             ",
"                                                            . = = = - ; @ # $ # > @ ,           ",
"                                                          . ' ) ) ) ! ~ = { ] # # ] ^ /         ",
"                                                        . ' ' ( ) ! ~ ' ) = { ] # > _ : <       ",
"                                                      . [ } ( ( ! ~ ' ' ' [ = { ] _ ] _ |       ",
"                                                    1 2 3 3 3 3 ~ ' [ ' ) ' ~ = { _ @ 4 <       ",
"                                      5 5 5       1 6 6 7 8 9 0 a } b ) ' c ~ d e @ @ f g       ",
"                                  5 5 h i j 5   1 6 6 7 8 9 0 0 k a } l ' m m e e @ { n o       ",
"                              5 5 p q r s t u 1 v w 7 8 9 0 0 k 0 k a } l x e y e { { e         ",
"                          5 5 z A B C D E F 1 6 w G 8 9 0 0 H I k 0 k a } e y y e { n e         ",
"                      5 5 J q K D D L M N 1 v w 7 8 9 0 0 0 k k H I 0 k a e y O e n e           ",
"                  5 5 P Q R S T D D D T 1 6 w G 8 9 0 0 H I k k k H k { > U O O e e             ",
"              V V J W X Y s Z D D T C 1 v w 7 8 9 0 0 0 k k H H I k { > ] ` O ; e               ",
"          V V P  ...+.@.D E #.$.E T 1 6 6 7 8 9 0 0 k H I k k k I { > > %.. ; e                 ",
"      V V p &.i @.*.=.-.;.>.,.E $.1 v w G 8 9 0 k I 0 k k H I H { > > %.@ ` e                   ",
"    V h &.B D E Z -.;.=.'.).#.E 1 6 6 7 8 9 0 0 0 I 0 0 k k I { > ] %.@ 4 !.                    ",
"    V h ;.D E ~.Z {.-.=.].E D 1 v w G 8 9 0 0 0 0 0 I H k H { > ] %.@ 4 1                       ",
"    V 9 i E L M s -.*.).^.{.1 6 6 7 8 9 0 0 I k I k k I k { > > %.@ 4 1                         ",
"      V 9 /.(.E Y ).=.).-.1 v w 7 8 9 0 k _.0 H 0 I H 0 { > ] %.@ 4 1                           ",
"        V 9 :.C Z Y *.].1 6 w 7 8 9 0 0 I k k k 0 k I { > > %.@ 4 1 <.                          ",
"          [.9 }.|.|.E 1 v w 7 8 9 0 0 I 0 0 0 0 I I { > > %.@ 4 1 1.2.<.                        ",
"            [.9 }.E 1 6 3.3.4.9 0 k 0 I 0 0 H k 0 { > > %.@ 4 1 5.6.7.8.9.                      ",
"              [.9 1 0 0.3.a.3.0 k 0 I 0 I k k 0 { > > %.@ 4 1 b.c.d.e.f.g.h.                    ",
"                / i.0.3.a.a.a.0 H 0 I 0 I H k { > > %.@ 4 1 j.k.l.m.n.o.p.q.r.                  ",
"                s.t.3.a.u.v.v.i.H H 0 I k k { > > %.@ 4 1 b.w.x.y.z.A.B.C.D.E.r.                ",
"                s.F.3.G.v.v.v.H.H H H H I { > > %.I.4 1 J.K.l.L.M.N.O.P.Q.R.S.u T.              ",
"              t.t.0.a.U.V.v.W.X.H.i.H H { > > %.@ 4 1 Y.Z.`.m. +N..+++@+#+$+Y q u T.            ",
"              s.F.3.G.V.%+&+U.u.*+*+=+{ > ] %.@ 4 1 5.-+;+>+,+'+)+!+~+{+]+Y Y ^+/+u T.          ",
"              (+0.3._+:+<+[+}+H.|+=+1+F.2+%.@ 4 1 3+6.4+L.5+6+7+8+9+0+a+].S Y {.T b+u T.        ",
"            t.t.c+G.<+<+d+e+f+g+=+1+F.2+h+I.4 1 J.i+x.j+n.k+7+l+Q.m+n+-.Y D ;.o+p+S q+u r+      ",
"            s.F.G._+s+t+u+v+g+w+1+F.2+h+x+4 1 y+z+A+B+C+D+E+F+~+0+G+E D >.).{.E E D H+u j I+    ",
"            s.0.J+K+L+M+N+O+P+Q+F.2+h+x+4 1 R+i+S+T+,+U+V+W+X+Y+Z+D o+;.D Y `+,. @u .@T.+@      ",
"          t.t.3._+t+@@#@$@%@&@F.2+h+x+x+1 *@i+A+=@-@;@>@,@'@)@!@).).*.S T ^+~@u .@T.r+          ",
"          s.e e {@u+]@g+^@/@F.2+h+x+x+1 (@K._@=@,+6+:@<@[@}@Z+$.*.].|@p+~@u .@T.r+              ",
"          1@e e {@{@2@3@F.2+h+x+x+4@4@5@6@7@8@9@0@a@b@c@}@d@].;.e@^+~@u .@T.r+                  ",
"        f@e g@{@e e 2+2+h+x+4@4@h@    i@j@k@l@0@m@n@o@p@q@|.r@Y q u u T.r+                      ",
"        s@e {@t@e e u@4@4@h@              v@w@x@y@z@A@B@p+E ~@u u T.r+                          ",
"        C@{@t@e D@E@h@                      F@G@H@I@J@K@L@u .@T.r+                              ",
"      f@e M@e f@                              N@O@P@Q@u u T.r+                                  ",
"      R@f@                                      S@9 T@T.r+                                      ",
"                                                  U@U@                                          ",
"                                                                                                ",
"                                                                                                ",
"                                                                                                "};
