/* XPM */
static char * folder_xpm[] = {
"48 48 296 2",
"  	c None",
". 	c #000000",
"+ 	c #0E0E0E",
"@ 	c #FAFAFA",
"# 	c #FFFFFF",
"$ 	c #BEBEBE",
"% 	c #505050",
"& 	c #3E3E3E",
"* 	c #CCCCCC",
"= 	c #DEDEDE",
"- 	c #F3F3F3",
"; 	c #FCFCFC",
"> 	c #003857",
", 	c #767676",
"' 	c #9E9E9E",
") 	c #C5C5C5",
"! 	c #E2E2E2",
"~ 	c #EBEBEB",
"{ 	c #F4F4F4",
"] 	c #FBFBFB",
"^ 	c #E7F2F6",
"/ 	c #F7F9F9",
"( 	c #F0F6FA",
"_ 	c #1384AE",
": 	c #004B73",
"< 	c #757575",
"[ 	c #A4A4A4",
"} 	c #C9C9C9",
"| 	c #DBDBDB",
"1 	c #E9E9E9",
"2 	c #F7F7F7",
"3 	c #D5E7F0",
"4 	c #DBEBF3",
"5 	c #E1EEF5",
"6 	c #DBECF2",
"7 	c #003654",
"8 	c #818181",
"9 	c #B3B3B3",
"0 	c #D0D0D0",
"a 	c #E4E4E4",
"b 	c #F5F5F5",
"c 	c #131313",
"d 	c #B7D9E7",
"e 	c #C2DDEA",
"f 	c #CCE4EE",
"g 	c #C4E0EA",
"h 	c #CCE3ED",
"i 	c #D4E8EF",
"j 	c #004C74",
"k 	c #003E61",
"l 	c #ACACAC",
"m 	c #CBCBCB",
"n 	c #D5D5D5",
"o 	c #E6E6E6",
"p 	c #FDFDFD",
"q 	c #9CCCE0",
"r 	c #A4CEE3",
"s 	c #ADD3E5",
"t 	c #A5D0E0",
"u 	c #B0D5E3",
"v 	c #BADAE7",
"w 	c #CDE4ED",
"x 	c #003B5C",
"y 	c #828282",
"z 	c #B1B1B1",
"A 	c #CFCFCF",
"B 	c #D1D1D1",
"C 	c #F9F9F9",
"D 	c #B7B7B7",
"E 	c #82BCD7",
"F 	c #8BC3DA",
"G 	c #93C6DD",
"H 	c #87C1D5",
"I 	c #92C6D9",
"J 	c #9BCADC",
"K 	c #AEAEAE",
"L 	c #D7D7D7",
"M 	c #E7E7E7",
"N 	c #EEEEEE",
"O 	c #F2F2F2",
"P 	c #F6F6F6",
"Q 	c #EFEFEF",
"R 	c #5DB0D4",
"S 	c #6DB3D0",
"T 	c #77B8D4",
"U 	c #6AB1CC",
"V 	c #74B6CF",
"W 	c #7EBCD2",
"X 	c #B1D5E3",
"Y 	c #004A72",
"Z 	c #003C5E",
"` 	c #C3C3C3",
" .	c #DADADA",
"..	c #E5E5E5",
"+.	c #EAEAEA",
"@.	c #ECECEC",
"#.	c #D3D3D3",
"$.	c #3BABE0",
"%.	c #48ADDC",
"&.	c #52ADD7",
"*.	c #49A0C0",
"=.	c #54A5C4",
"-.	c #5FABC8",
";.	c #D5E8EF",
">.	c #DEEDF3",
",.	c #C7C7C7",
"'.	c #D8D8D8",
").	c #DCDCDC",
"!.	c #CECECE",
"~.	c #D9D9D9",
"{.	c #E0E0E0",
"].	c #EDEDED",
"^.	c #26A5E0",
"/.	c #2DABE0",
"(.	c #34AEE0",
"_.	c #3193B8",
":.	c #3998BB",
"<.	c #429CBE",
"[.	c #BEDCE8",
"}.	c #D2E7EF",
"|.	c #00476D",
"1.	c #858585",
"2.	c #A7A7A7",
"3.	c #DDDDDD",
"4.	c #D4D4D4",
"5.	c #1EA8E2",
"6.	c #1A87B0",
"7.	c #218BB3",
"8.	c #2A90B5",
"9.	c #A5CFDF",
"0.	c #C0DDE9",
"a.	c #004367",
"b.	c #004971",
"c.	c #004265",
"d.	c #868686",
"e.	c #AAAAAA",
"f.	c #BBBBBB",
"g.	c #003E60",
"h.	c #00456B",
"i.	c #A9A9A9",
"j.	c #26A9E0",
"k.	c #84BFD4",
"l.	c #A6D1E0",
"m.	c #C9E1EB",
"n.	c #D9EAF0",
"o.	c #003D5F",
"p.	c #004163",
"q.	c #9C9C9C",
"r.	c #979797",
"s.	c #24A1DB",
"t.	c #25A2DD",
"u.	c #27A9DF",
"v.	c #1F8AB2",
"w.	c #3294B8",
"x.	c #62ACC9",
"y.	c #69B0D0",
"z.	c #94C6DE",
"A.	c #AED1E3",
"B.	c #BFDBE6",
"C.	c #00486F",
"D.	c #A8A8A8",
"E.	c #2398CE",
"F.	c #239BD3",
"G.	c #24A0D9",
"H.	c #1D80AC",
"I.	c #1F84AE",
"J.	c #1F87B0",
"K.	c #6AB1CB",
"L.	c #71B4CE",
"M.	c #71B4D2",
"N.	c #97C7DE",
"O.	c #ACD0E3",
"P.	c #66AECF",
"Q.	c #A6D0E0",
"R.	c #F8F8F8",
"S.	c #9A9A9A",
"T.	c #2290C3",
"U.	c #228EC7",
"V.	c #2295CB",
"W.	c #1B719F",
"X.	c #1B76A4",
"Y.	c #1D7CAA",
"Z.	c #228CB3",
"`.	c #439CBE",
" +	c #4AA0C0",
".+	c #55A5C4",
"++	c #6EB3CD",
"@+	c #67AFD0",
"#+	c #8AC1DB",
"$+	c #F4F6F7",
"%+	c #1F86BB",
"&+	c #1F87BD",
"*+	c #208CBF",
"=+	c #186292",
"-+	c #196797",
";+	c #1A6B9B",
">+	c #EAF0F3",
",+	c #8F8F8F",
"'+	c #1E7BAA",
")+	c #1E80B3",
"!+	c #1E85BA",
"~+	c #155988",
"{+	c #165B8B",
"]+	c #175E8F",
"^+	c #DCE8ED",
"/+	c #A8BDC8",
"(+	c #5498BB",
"_+	c #004468",
":+	c #004B74",
"<+	c #145786",
"[+	c #C9DCE3",
"}+	c #E8E8E8",
"|+	c #8EAAB9",
"1+	c #327192",
"2+	c #B0CBD5",
"3+	c #808080",
"4+	c #E3E3E3",
"5+	c #98BECB",
"6+	c #B9B9B9",
"7+	c #F1F1F1",
"8+	c #F0F0F0",
"9+	c #81B2C3",
"0+	c #DFDFDF",
"a+	c #78B1C5",
"b+	c #6BAAC3",
"c+	c #D2D2D2",
"d+	c #B2B2B2",
"e+	c #D6D6D6",
"f+	c #5F9EBC",
"g+	c #7E7E7E",
"h+	c #BCBCBC",
"i+	c #CDCDCD",
"j+	c #508CAF",
"k+	c #848484",
"l+	c #E1E1E1",
"m+	c #C8C8C8",
"n+	c #C2C2C2",
"o+	c #C4C4C4",
"p+	c #4079A0",
"q+	c #ABABAB",
"r+	c #B6B6B6",
"s+	c #CACACA",
"t+	c #C1C1C1",
"u+	c #B8B8B8",
"v+	c #C6C6C6",
"w+	c #2F668D",
"x+	c #7F7F7F",
"y+	c #C0C0C0",
"z+	c #BDBDBD",
"A+	c #BABABA",
"B+	c #B4B4B4",
"C+	c #B0B0B0",
"D+	c #175273",
"E+	c #888888",
"F+	c #ADADAD",
"G+	c #878787",
"H+	c #A5A5A5",
"I+	c #234B60",
"J+	c #A0A0A0",
"K+	c #444446",
"L+	c #898989",
"M+	c #A1A1A1",
"N+	c #454546",
"O+	c #8C8C8C",
"P+	c #949494",
"Q+	c #BFBFBF",
"R+	c #A3A3A3",
"S+	c #7D7D7D",
"T+	c #454545",
"U+	c #8E8E8E",
"V+	c #AFAFAF",
"W+	c #B5B5B5",
"X+	c #424244",
"Y+	c #A6A6A6",
"Z+	c #9D9D9D",
"`+	c #747474",
" @	c #414142",
".@	c #989898",
"+@	c #9F9F9F",
"@@	c #797979",
"#@	c #919191",
"$@	c #424243",
"%@	c #9B9B9B",
"&@	c #7A7A7A",
"*@	c #929292",
"=@	c #777777",
"-@	c #969696",
";@	c #737373",
">@	c #454547",
",@	c #6E6E6E",
"'@	c #717171",
")@	c #838383",
"!@	c #6C6C6C",
"~@	c #7B7B7B",
"{@	c #020103",
"]@	c #020204",
"                                                                                                ",
"                                                                                                ",
"                                                                                                ",
"        . . .                                                                                   ",
"      + @ # $ % . .                                                                             ",
"      & * = - ; # $ % . .                                                                       ",
"  > > > , ' ) ! ~ { ] # $ % . .                                                                 ",
"> ^ / ( _ : > < [ } | 1 2 ; # $ % . .             . . .                                         ",
"> 3 4 5 6 / ^ _ : 7 8 9 0 | a b ; # $ % . .     c # # $ % . .                                   ",
"> d e f g h i 6 / ^ _ j k 8 l m n o b ] # $ % . # p ; ; # # $ % . .                             ",
"> q r s t u v g w i 6 / ^ _ j x y z A B ! - @ # C p ; @ C p p # # D .                           ",
"> E F G H I J t u v g w i 6 / ^ _ j x 8 K L M N O { P b b 2 @ 2 { Q .                           ",
"> R S T U V W H I J t X v g w i 6 / ^ Y Z `  .a o ..M +.@.Q O b { N #..                         ",
"> $.%.&.*.=.-.U V W H I J t X v g w ;.>.x ' ,.'.).= ).n !.~.{.~ - C ]..                         ",
"> ^./.(._.:.<.*.=.-.U V W H I J t X [.}.> 8 [ 9 !.B B |.1.2.) #.3.~ P 4..                       ",
"> 5.5.5.6.7.8._.:.<.*.=.-.U V W H I 9.0.a.b.c.d.e.f.D g._ g.h.1.i.` M n .                       ",
"> j.5.5._ _ _ 6.7.8._.:.<.*.=.-.U V k.l.m.n._ j o.p.q.g.6 / ^ _ |.r.,.4..                       ",
"> s.t.u.v._ _ _ _ _ 6.7.8.w.:.<.*.=.x.y.z.A.B.m.n._ Y j g w i 6 / C.D.n .                       ",
"> E.F.G.H.I.J.v._ _ _ _ _ 6.7.8.w.:.<.*.K.L.M.N.O.n.n.P.Q.X v g w R.S.n .                       ",
"> T.U.V.W.X.Y.H.I.J.v._ _ _ _ _ 6.Z.8.w.:.`. +.+++@+#+z.H I J Q.X $+r.#..                       ",
"> %+&+*+=+-+;+W.X.Y.H.I.J.v._ _ _ _ _ 6.Z.8.w.:.<.*.=.-.U V W H I >+,+#..                       ",
"> '+)+!+~+{+]+=+-+;+W.X.Y.H.I.J.v._ _ _ _ _ 6.Z.8.w.:.<.*.=.-.U V ^+d.B .                       ",
"& ]./+(+_+:+<+~+{+]+=+-+;+W.X.Y.H.I.J.v._ _ _ _ _ 6.Z.8.w.:.<.*.=.[+8 * .                       ",
". }+; @ C |+1+_+:+<+~+{+]+=+-+;+W.X.Y.H.I.J.v._ _ _ _ _ 6.Z.8.w.:.2+3+m .                       ",
". 4+# ] R.R.P 2 |+1+_+:+<+~+{+]+=+-+;+W.X.Y.H.I.J.v._ _ _ _ _ 6.Z.5+8 A .                       ",
". ! ] 6+` { 7+8+8+8+7+|+1+_+:+<+~+{+]+=+-+;+W.X.Y.H.I.J.v._ _ _ _ 9+8 B .                       ",
". 0+R.` ; - 8+].+.}+M +.+.].|+1+_+:+<+~+{+]+=+-+;+W.X.Y.H.I.J.v._ a+d.#..                       ",
". 3.b { - 7+Q @.1 o 4+{.0+= ! ..a |+1+_+:+<+~+{+]+=+-+;+W.X.Y.H.I.b+3+c+.                       ",
".  .O d+$ Q @.+.M ..! 0+).~.e+n n | = 4+|+1+_+:+<+~+{+]+=+-+;+W.X.f+g+c+.                       ",
". L Q h+C @.+.}+o 4+{.= | '.n c+A * * i+n '.= |+1+_+:+<+~+{+]+=+-+j+k+c+.                       ",
". 4.~ ~ +.1 M o 4+l+0+).~.e+4.B !.m m+) n+` o+i+c+| |+1+_+:+<+~+{+p+8 c+.                       ",
". c+}+q+r+o ..4+l+0+3. .'.n c+A i+s+,.o+t+$ f.u+6+f.v+* ~.|+1+_+:+w+x+c+.                       ",
". m l+d+2 4+! {.0+3. .'.e+#.0 !.m m+) n+y+z+A+D B+z K C+d+h+L 0 |+D+3+c+.                       ",
". E+$ 0 e+).| = ). .'.e+4.B A * } ,.o+t+$ f.u+r+9 C+F+e.2.$ G+[ H+I+3+c+.                       ",
"  . . . ' o+A 4.n 4.e+4.B A i+s+m+) n+y+z+A+D B+z K q+i.m 8 J+u+E+K+L+B .                       ",
"        . . . S.z+m+* i+m i+m m+v+` y+$ f.u+r+9 C+F+e.n y M+z+, E+N+O+B .                       ",
"              . . . P+D y+o+o+n+o+t+Q+h+6+D B+z K l {.k+R+) S+P+d.T+r.0 .                       ",
"                    . . . U+V+u+A+f.6+A+u+W+d+C+F+e+1.H+A g+q.W+d.X+r.B .                       ",
"                          . . . E+D.V+z d+V+z K i+k+Y+B x+Z+n+`+d. @.@B .                       ",
"                                . . . 8 J+2.i.` k+2.} 3++@m @@#@d.$@%@B .                       ",
"                                      . . . F+k+' $ k+Z+` &@r.y+d.K+*@0 .                       ",
"                                            . . . `+U+r+=@-@$ ;@d.>@,+!..                       ",
"                                                  . . . ,@l '@O+)@K+%@t+.                       ",
"                                                        . . . !@~@T+P+{@                        ",
"                                                              . . . ]@                          ",
"                                                                                                ",
"                                                                                                ",
"                                                                                                "};
