/* XPM */
static char * gnome_calc2_16_xpm[] = {
"16 16 103 2",
"  	c None",
". 	c #A8A59B",
"+ 	c #8F9B8D",
"@ 	c #949F91",
"# 	c #9FA497",
"$ 	c #8F9086",
"% 	c #7C7972",
"& 	c #D3D1C4",
"* 	c #9CA898",
"= 	c #8D9E8D",
"- 	c #748979",
"; 	c #607465",
"> 	c #58685B",
", 	c #646E63",
"' 	c #A1A095",
") 	c #42403C",
"! 	c #BBB7AD",
"~ 	c #BDC0BA",
"{ 	c #8D928B",
"] 	c #B4B1A7",
"^ 	c #ACA89E",
"/ 	c #A9A79C",
"( 	c #9EA195",
"_ 	c #8F9489",
": 	c #9C9B90",
"< 	c #3A3834",
"[ 	c #DFDDD5",
"} 	c #85908A",
"| 	c #929590",
"1 	c #A4A096",
"2 	c #94928C",
"3 	c #928E85",
"4 	c #767C77",
"5 	c #888C84",
"6 	c #98958B",
"7 	c #302F2C",
"8 	c #C8C5BA",
"9 	c #B6BDB6",
"0 	c #707C77",
"a 	c #ABA9A1",
"b 	c #97948A",
"c 	c #A5A29A",
"d 	c #939087",
"e 	c #8B8A83",
"f 	c #73746C",
"g 	c #86837A",
"h 	c #272624",
"i 	c #716E67",
"j 	c #DADAD2",
"k 	c #75847F",
"l 	c #858984",
"m 	c #A39F95",
"n 	c #95928C",
"o 	c #B0ACA1",
"p 	c #807E77",
"q 	c #7C7970",
"r 	c #827F76",
"s 	c #171715",
"t 	c #D1CDC2",
"u 	c #B3B3AA",
"v 	c #848A82",
"w 	c #AAA89F",
"x 	c #A8A499",
"y 	c #B2AFA8",
"z 	c #99958B",
"A 	c #7E7D77",
"B 	c #97948C",
"C 	c #7D7A71",
"D 	c #131312",
"E 	c #56544E",
"F 	c #A6A297",
"G 	c #B2AEA2",
"H 	c #B6B2A6",
"I 	c #B8B4A8",
"J 	c #A7A398",
"K 	c #9A968D",
"L 	c #8F8B82",
"M 	c #8E8B86",
"N 	c #A7A59F",
"O 	c #908E88",
"P 	c #75726A",
"Q 	c #10100F",
"R 	c #080807",
"S 	c #151413",
"T 	c #2C2A27",
"U 	c #4A4843",
"V 	c #66635D",
"W 	c #858279",
"X 	c #949187",
"Y 	c #979389",
"Z 	c #87837A",
"` 	c #69665F",
" .	c #0C0B0B",
"..	c #030302",
"+.	c #020202",
"@.	c #010101",
"#.	c #0E0E0D",
"$.	c #252421",
"%.	c #3D3C38",
"&.	c #53514B",
"*.	c #4F4E48",
"=.	c #000000",
"-.	c #010100",
"                                ",
"                                ",
"                                ",
"          . + @ # $ %           ",
"          & * = - ; > , ' )     ",
"        ! ~ { ] ^ / ( _ : <     ",
"        [ } | 1 2 3 4 5 6 7     ",
"      8 9 0 a b c d e f g h     ",
"    i j k l m n o p d q r s     ",
"    t u v w x y z A B q C D     ",
"  E F G H I J K L M N O P Q     ",
"    R S T U V W X z Y Z `  .    ",
"        ..+.@.@.#.$.%.&.*...    ",
"                =.=.=.-.-.=.    ",
"                                ",
"                                "};
