/* XPM */
static char * gnome_terminal_xpm[] = {
"16 16 172 2",
"  	c None",
". 	c #5F5E59",
"+ 	c #5E5D59",
"@ 	c #5C5B57",
"# 	c #595956",
"$ 	c #585654",
"% 	c #565551",
"& 	c #54524E",
"* 	c #52504C",
"= 	c #4F4E4B",
"- 	c #4C4A48",
"; 	c #474541",
"> 	c #DAD7CF",
", 	c #B1AFAB",
"' 	c #ABAAA7",
") 	c #A5A49F",
"! 	c #9E9E9B",
"~ 	c #969792",
"{ 	c #8F908B",
"] 	c #898983",
"^ 	c #82827D",
"/ 	c #7B7A77",
"( 	c #777472",
"_ 	c #726F6E",
": 	c #938E89",
"< 	c #C3C0B9",
"[ 	c #B7B7B7",
"} 	c #959395",
"| 	c #7E7E7E",
"1 	c #808280",
"2 	c #737473",
"3 	c #6E6F6E",
"4 	c #676767",
"5 	c #616361",
"6 	c #575857",
"7 	c #494749",
"8 	c #3B383B",
"9 	c #84827C",
"0 	c #000000",
"a 	c #BBBAB5",
"b 	c #979797",
"c 	c #797A79",
"d 	c #777877",
"e 	c #707270",
"f 	c #606260",
"g 	c #565956",
"h 	c #565856",
"i 	c #4E4E4E",
"j 	c #474446",
"k 	c #646161",
"l 	c #30302F",
"m 	c #7D7B77",
"n 	c #BAB7B2",
"o 	c #898889",
"p 	c #747674",
"q 	c #6D6F6D",
"r 	c #656765",
"s 	c #555755",
"t 	c #595958",
"u 	c #8A8583",
"v 	c #646261",
"w 	c #B5AFAA",
"x 	c #252320",
"y 	c #787671",
"z 	c #B3B2AD",
"A 	c #646664",
"B 	c #5F605F",
"C 	c #5D5F5D",
"D 	c #575757",
"E 	c #5B5959",
"F 	c #68605B",
"G 	c #312E2B",
"H 	c #5B524B",
"I 	c #0F0E0E",
"J 	c #74706D",
"K 	c #AAAAA3",
"L 	c #696A69",
"M 	c #656865",
"N 	c #666766",
"O 	c #5C5E5C",
"P 	c #585958",
"Q 	c #514F51",
"R 	c #86817E",
"S 	c #2A2A29",
"T 	c #313130",
"U 	c #6D6C6A",
"V 	c #474340",
"W 	c #706C69",
"X 	c #A4A39C",
"Y 	c #5B5D5B",
"Z 	c #535653",
"` 	c #4D4F4D",
" .	c #494949",
"..	c #444144",
"+.	c #423F42",
"@.	c #383532",
"#.	c #393A39",
"$.	c #C1BDB9",
"%.	c #B3A9A1",
"&.	c #786E66",
"*.	c #494743",
"=.	c #9F9D95",
"-.	c #4E504E",
";.	c #454245",
">.	c #3D3A3D",
",.	c #62605D",
"'.	c #47423E",
").	c #8B8A88",
"!.	c #ADA299",
"~.	c #94877C",
"{.	c #3A342F",
"].	c #464342",
"^.	c #AAA8A1",
"/.	c #737270",
"(.	c #7A7778",
"_.	c #747371",
":.	c #706D6F",
"<.	c #696967",
"[.	c #605F5D",
"}.	c #343332",
"|.	c #9A9591",
"1.	c #998D83",
"2.	c #2E2925",
"3.	c #232121",
"4.	c #7A7574",
"5.	c #363332",
"6.	c #686A65",
"7.	c #A5A397",
"8.	c #A5A29B",
"9.	c #A19A92",
"0.	c #9E938D",
"a.	c #978983",
"b.	c #938D87",
"c.	c #90807B",
"d.	c #9B948F",
"e.	c #8F8379",
"f.	c #343426",
"g.	c #6D6967",
"h.	c #A49E99",
"i.	c #948A81",
"j.	c #0F0E0C",
"k.	c #151615",
"l.	c #343330",
"m.	c #5E5E58",
"n.	c #64635C",
"o.	c #6B6A63",
"p.	c #696860",
"q.	c #6A6862",
"r.	c #6B655F",
"s.	c #95877D",
"t.	c #6A5F57",
"u.	c #595551",
"v.	c #9A9794",
"w.	c #645B54",
"x.	c #010101",
"y.	c #454844",
"z.	c #595752",
"A.	c #575652",
"B.	c #54544F",
"C.	c #53514D",
"D.	c #504D4B",
"E.	c #4E4B4A",
"F.	c #464340",
"G.	c #5E554D",
"H.	c #938479",
"I.	c #A6998F",
"J.	c #A4998F",
"K.	c #1F1B19",
"L.	c #040403",
"M.	c #221E1B",
"N.	c #3C3530",
"O.	c #211E1B",
"                                ",
"    . + @ # $ % & * = - ;       ",
"  > , ' ) ! ~ { ] ^ / ( _ :     ",
"  < [ } | 1 2 3 4 5 6 7 8 9 0   ",
"  a b c d e f g h i j k l m 0   ",
"  n o p q r 5 s t u v w x y 0   ",
"  z 2 e A B C D E F G H I J 0   ",
"  K L M N O P Q R S T U V W 0   ",
"  X Y Z `  ...+.@.#.$.%.&.*.0   ",
"  =.Z -. .;.>.,.'.).!.~.{.].0   ",
"  ^./.(._.:.<.[.}.|.1.2.3.4.5.  ",
"  6.7.8.9.0.a.b.c.d.e.f.g.h.i.j.",
"    k.l.m.n.o.p.q.r.s.t.u.v.w.x.",
"    y.z.A.B.C.D.E.F.G.H.I.J.K.  ",
"        0 0 0 0 0 0 L.M.N.O.0   ",
"                                "};
