/* XPM */
static char * help_xpm[] = {
"36 36 243 2",
"  	c None",
". 	c #1F4194",
"+ 	c #204398",
"@ 	c #21449C",
"# 	c #21459D",
"$ 	c #1F4296",
"% 	c #204399",
"& 	c #2B4EA1",
"* 	c #4B67AE",
"= 	c #6D82BC",
"- 	c #7B8DC1",
"; 	c #98A4CD",
"> 	c #5772B3",
", 	c #1B377E",
"' 	c #1F4093",
") 	c #204297",
"! 	c #21449B",
"~ 	c #3E5CA9",
"{ 	c #526DB1",
"] 	c #6278B7",
"^ 	c #8191C4",
"/ 	c #98A3CC",
"( 	c #9CA5CE",
"_ 	c #97A0CC",
": 	c #9BA3CE",
"< 	c #9FA7CF",
"[ 	c #A3AAD1",
"} 	c #7388BE",
"| 	c #1C3B87",
"1 	c #415EAA",
"2 	c #5A71B4",
"3 	c #6479B7",
"4 	c #7182BC",
"5 	c #8E99C8",
"6 	c #8691C4",
"7 	c #828EC2",
"8 	c #8692C4",
"9 	c #8A95C6",
"0 	c #939CCA",
"a 	c #99A8CE",
"b 	c #1E3F8E",
"c 	c #274A9F",
"d 	c #2F4FA2",
"e 	c #3D59A7",
"f 	c #566CB1",
"g 	c #6175B5",
"h 	c #7080BB",
"i 	c #6F7FBA",
"j 	c #6D7DB9",
"k 	c #7180BB",
"l 	c #7584BD",
"m 	c #7987BF",
"n 	c #7E8BC1",
"o 	c #A5B0D2",
"p 	c #536BB0",
"q 	c #4860AB",
"r 	c #5C6FB2",
"s 	c #6072B4",
"t 	c #6476B6",
"u 	c #6879B7",
"v 	c #B3BAD8",
"w 	c #2C4EA2",
"x 	c #586CB0",
"y 	c #657AB8",
"z 	c #3F5AA8",
"A 	c #AFB5D6",
"B 	c #4D6AAF",
"C 	c #172F6B",
"D 	c #5166AD",
"E 	c #6F81BC",
"F 	c #3956A6",
"G 	c #A8ADD3",
"H 	c #6E86BD",
"I 	c #193579",
"J 	c #4F64AC",
"K 	c #7384BD",
"L 	c #415DA9",
"M 	c #596DB1",
"N 	c #8597C6",
"O 	c #4961AA",
"P 	c #6D7EBA",
"Q 	c #4C66AE",
"R 	c #5369AF",
"S 	c #A1AED1",
"T 	c #20449A",
"U 	c #445DA9",
"V 	c #6477B6",
"W 	c #556DB2",
"X 	c #4A62AC",
"Y 	c #BBC2DC",
"Z 	c #1F4193",
"` 	c #3855A5",
" .	c #6073B4",
"..	c #6277B7",
"+.	c #465FAA",
"@.	c #B5BBD9",
"#.	c #4261AB",
"$.	c #304FA2",
"%.	c #7183BD",
"&.	c #3F5AA7",
"*.	c #AEB3D6",
"=.	c #637DB8",
"-.	c #1A367A",
";.	c #2A4BA0",
">.	c #5368AE",
",.	c #7687BF",
"'.	c #3E5AA7",
").	c #ACB1D5",
"!.	c #778DC0",
"~.	c #1C3A85",
"{.	c #7383BD",
"].	c #4560AB",
"^.	c #9DACD0",
"/.	c #475FAA",
"(.	c #6C7EBA",
"_.	c #536BB1",
":.	c #5268AF",
"<.	c #B5BED9",
"[.	c #415BA8",
"}.	c #687AB8",
"|.	c #6075B6",
"1.	c #4D65AD",
"2.	c #BCC3DC",
"3.	c #3758A6",
"4.	c #3755A5",
"5.	c #6D80BB",
"6.	c #445EAA",
"7.	c #B6BCD9",
"8.	c #4E6BAF",
"9.	c #2E4EA2",
"0.	c #5A6DB1",
"a.	c #7586BF",
"b.	c #3F5BA8",
"c.	c #B0B4D7",
"d.	c #7A91C2",
"e.	c #1B387F",
"f.	c #24479E",
"g.	c #586BB0",
"h.	c #7888BF",
"i.	c #4460AB",
"j.	c #5F72B4",
"k.	c #96A6CD",
"l.	c #5167AE",
"m.	c #7484BD",
"n.	c #516AB0",
"o.	c #5A6FB2",
"p.	c #A6B2D3",
"q.	c #204296",
"r.	c #6C7DB9",
"s.	c #5C73B4",
"t.	c #5067AF",
"u.	c #C4CAE0",
"v.	c #6678B6",
"w.	c #667BB9",
"x.	c #4862AC",
"y.	c #BCC1DC",
"z.	c #4E6BB0",
"A.	c #152B62",
"B.	c #3251A3",
"C.	c #6274B4",
"D.	c #7889C0",
"E.	c #435EAA",
"F.	c #B6BAD9",
"G.	c #7088BD",
"H.	c #2C4CA1",
"I.	c #7C8CC1",
"J.	c #435FAA",
"K.	c #B4B8D9",
"L.	c #8499C6",
"M.	c #1D3C89",
"N.	c #7887BF",
"O.	c #4A64AD",
"P.	c #5E72B3",
"Q.	c #8195C4",
"R.	c #576FB3",
"S.	c #596EB1",
"T.	c #8F9AC9",
"U.	c #7A8AC1",
"V.	c #6479B8",
"W.	c #4C67AE",
"X.	c #3353A4",
"Y.	c #6E7FBA",
"Z.	c #677CB9",
"`.	c #5168AE",
" +	c #5E74B5",
".+	c #5974B6",
"++	c #748BC2",
"@+	c #9EAED4",
"#+	c #C8D1E7",
"$+	c #F1F3F9",
"%+	c #3B58A6",
"&+	c #7184BE",
"*+	c #4962AB",
"=+	c #6679B7",
"-+	c #5A70B3",
";+	c #4D66AE",
">+	c #3E5BA8",
",+	c #2D4EA2",
"'+	c #3D5CA9",
")+	c #90A2CE",
"!+	c #BAC5E0",
"~+	c #D5DCED",
"{+	c #FFFFFF",
"]+	c #3050A2",
"^+	c #4E66AD",
"/+	c #4A65AE",
"(+	c #2B4CA1",
"_+	c #536EB0",
":+	c #7B8FC1",
"<+	c #97A6CD",
"[+	c #C2CBE1",
"}+	c #FCFCFC",
"|+	c #E3E8F3",
"1+	c #1F4091",
"2+	c #1B3983",
"3+	c #25489E",
"4+	c #3051A2",
"5+	c #7B8DB9",
"6+	c #A0ACC7",
"7+	c #C7CCD7",
"8+	c #E4E4E4",
"9+	c #E9E9E9",
"0+	c #EEEEEE",
"a+	c #F2F2F2",
"b+	c #CFD6E6",
"c+	c #AAB7D8",
"d+	c #8296C8",
"e+	c #1E3E8D",
"f+	c #1A377D",
"g+	c #183170",
"h+	c #798BB7",
"i+	c #D5D5D5",
"j+	c #DADADA",
"k+	c #B0B9CF",
"l+	c #8F9EC5",
"m+	c #6C82B9",
"n+	c #4765AC",
"o+	c #193476",
"p+	c #14295D",
"q+	c #425FA7",
"r+	c #3757A4",
"s+	c #1D3C88",
"t+	c #193477",
"                                            . + @ #                     ",
"                                  $ % # & * = - ; > ,                   ",
"                      ' ) ! # ~ { ] ^ / ( _ : < [ } |                   ",
"            . + @ # 1 2 3 4 5 6 7 8 9 5 0 _ : < [ a b                   ",
"      % c d e f g h i j k l m n 7 8 9 5 0 _ : < [ o #                   ",
"      @ p 2 q r s t u j k l m n 7 8 9 5 0 _ : < [ v w                   ",
"      # x y z r s t u j k l m n 7 8 9 5 0 _ : < [ A B C                 ",
"      # D E F r s t u j k l m n 7 8 9 5 0 _ : < [ G H I                 ",
"      # J K L M s t u j k l m n 7 8 9 5 0 _ : < [ G N b                 ",
"      # O P Q R s t u j k l m n 7 8 9 5 0 _ : < [ G S T                 ",
"      ) U V W X s t u j k l m n 7 8 9 5 0 _ : < [ G Y #                 ",
"      Z `  ...+.s t u j k l m n 7 8 9 5 0 _ : < [ G @.#.                ",
"        $.M %.&.s t u j k l m n 7 8 9 5 0 _ : < [ G *.=.-.              ",
"        ;.>.,.'.s t u j k l m n 7 8 9 5 0 _ : < [ G ).!.~.              ",
"        # >.{.].M t u j k l m n 7 8 9 5 0 _ : < [ G ).^.'               ",
"        % /.(._.:.t u j k l m n 7 8 9 5 0 _ : < [ G ).<.#               ",
"        ) [.}.|.1.t u j k l m n 7 8 9 5 0 _ : < [ G ).2.3.              ",
"        b 4. .5.6.t u j k l m n 7 8 9 5 0 _ : < [ G ).7.8.C             ",
"          9.0.a.b.t u j k l m n 7 8 9 5 0 _ : < [ G ).c.d.e.            ",
"          f.g.h.i.j.u j k l m n 7 8 9 5 0 _ : < [ G ).c.k.b             ",
"          # l.m.n.o.u j k l m n 7 8 9 5 0 _ : < [ G ).c.p.T             ",
"          q.X r.s.t.u j k l m n 7 8 9 5 0 _ : < [ G ).c.u.#             ",
"          Z e v.w.x.u j k l m n 7 8 9 5 0 _ : < [ G ).c.y.z.A.          ",
"            B.C.D.E.u j k l m n 7 8 9 5 0 _ : < [ G ).c.F.G.-.          ",
"            H.r I.J.u j k l m n 7 8 9 5 0 _ : < [ G ).c.K.L.M.          ",
"            # r N.O.P.j k l m n 7 8 9 5 0 _ : < [ G ).c.K.Q.q.          ",
"            % 1.m.R.S.j k l m n 7 8 9 5 0 _ : T.U.V.W.X.# # M.          ",
"            ) +.Y.Z.`.j k l m n 7 8 E  +p ~ # # .+++@+#+$+#             ",
"            b %+u &+*+j =+-+;+>+,+# '+.+)+!+~+{+{+{+$+#+)+#             ",
"              ]+^+/+(+# # _+:+<+[+}+{+{+{+|+!+)+.+'+# 1+2+I             ",
"              3+4+5+6+7+8+9+0+a+b+c+d+.+# # e+f+g+                      ",
"              # h+i+j+k+l+m+n+# % e+o+p+                                ",
"              ) q+r+# $ s+t+                                            ",
"                ,                                                       ",
"                                                                        ",
"                                                                        "};
