/* XPM */
static char * multimedia_xpm[] = {
"48 48 459 2",
"  	c None",
". 	c #7A8E8E",
"+ 	c #7A9292",
"@ 	c #6A716D",
"# 	c #799797",
"$ 	c #8ABCBC",
"% 	c #9ECFCF",
"& 	c #AAD9D9",
"* 	c #7DACAC",
"= 	c #789292",
"- 	c #769EA0",
"; 	c #AFDEE2",
"> 	c #D3FCFF",
", 	c #CAF1FF",
"' 	c #B3D2DE",
") 	c #B5D4E1",
"! 	c #CCF2FF",
"~ 	c #CDF7FA",
"{ 	c #A4D6D9",
"] 	c #729AA0",
"^ 	c #BBEAF1",
"/ 	c #CEF9FF",
"( 	c #7C8F96",
"_ 	c #444444",
": 	c #4E4E4E",
"< 	c #565656",
"[ 	c #676A6B",
"} 	c #9CB1BA",
"| 	c #6B959D",
"1 	c #ADE0EC",
"2 	c #C6F5FF",
"3 	c #4C5558",
"4 	c #383838",
"5 	c #414141",
"6 	c #4B4B4B",
"7 	c #535353",
"8 	c #5D5D5D",
"9 	c #686868",
"0 	c #91A2AA",
"a 	c #9BD1DD",
"b 	c #6B8B94",
"c 	c #6C858E",
"d 	c #84BCCF",
"e 	c #C0F0FF",
"f 	c #607279",
"g 	c #2C2C2C",
"h 	c #353535",
"i 	c #3E3E3E",
"j 	c #484848",
"k 	c #525252",
"l 	c #5A5A5A",
"m 	c #656565",
"n 	c #717171",
"o 	c #9DB4BF",
"p 	c #79B2C5",
"q 	c #6293A7",
"r 	c #ADE2F5",
"s 	c #93B9CA",
"t 	c #222222",
"u 	c #2A2A2A",
"v 	c #323232",
"w 	c #3B3B3B",
"x 	c #454545",
"y 	c #4F4F4F",
"z 	c #595959",
"A 	c #636363",
"B 	c #6E6E6E",
"C 	c #797979",
"D 	c #B0D9EC",
"E 	c #A0D8EC",
"F 	c #638E9D",
"G 	c #175778",
"H 	c #A5DCF5",
"I 	c #B3E8FF",
"J 	c #2E3537",
"K 	c #212121",
"L 	c #292929",
"M 	c #313131",
"N 	c #585858",
"O 	c #6D6D6D",
"P 	c #787878",
"Q 	c #909DA2",
"R 	c #6BA7C5",
"S 	c #13546B",
"T 	c #03456A",
"U 	c #88CEEC",
"V 	c #AEE5FF",
"W 	c #7597A8",
"X 	c #1A1A1A",
"Y 	c #3A3A3A",
"Z 	c #626262",
"` 	c #6C6C6C",
" .	c #838383",
"..	c #A6D3E9",
"+.	c #88C3E2",
"@.	c #5B8397",
"#.	c #0F5771",
"$.	c #025987",
"%.	c #199BC9",
"&.	c #A8E3FF",
"*.	c #43565E",
"=.	c #969696",
"-.	c #919191",
";.	c #94A9B4",
">.	c #A1DDFA",
",.	c #4F8AA9",
"'.	c #0F4658",
").	c #0D4357",
"!.	c #0F4E6A",
"~.	c #0C6BA0",
"{.	c #21A8D9",
"].	c #58BFE7",
"^.	c #A1DDFC",
"/.	c #99D1EE",
"(.	c #161616",
"_.	c #1C1C1C",
":.	c #F9F9F9",
"<.	c #FCFCFC",
"[.	c #FFFFFF",
"}.	c #939393",
"|.	c #7B7B7B",
"1.	c #8B8F91",
"2.	c #609FC6",
"3.	c #5B7A8C",
"4.	c #134F62",
"5.	c #024468",
"6.	c #035379",
"7.	c #07577E",
"8.	c #3394C7",
"9.	c #53BDED",
"0.	c #83D1F6",
"a.	c #9BDBFA",
"b.	c #6991A5",
"c.	c #191919",
"d.	c #F2F2F2",
"e.	c #9A9A9A",
"f.	c #7C7C7C",
"g.	c #858585",
"h.	c #8A8A8A",
"i.	c #97C7DF",
"j.	c #6FB2D7",
"k.	c #527B90",
"l.	c #024469",
"m.	c #0787B6",
"n.	c #0895C3",
"o.	c #4EBBE8",
"p.	c #76D1FF",
"q.	c #91D5F7",
"r.	c #94D7F8",
"s.	c #46606C",
"t.	c #ACACAC",
"u.	c #F1F1F1",
"v.	c #F7F7F7",
"w.	c #FBFBFB",
"x.	c #FDFDFD",
"y.	c #737373",
"z.	c #7E7E7E",
"A.	c #868686",
"B.	c #8C8C8C",
"C.	c #93B4C5",
"D.	c #7ABFE4",
"E.	c #477A97",
"F.	c #0E649A",
"G.	c #35B1E1",
"H.	c #92E4FF",
"I.	c #9AE7FF",
"J.	c #99E6FF",
"K.	c #8FD3F6",
"L.	c #323F45",
"M.	c #E8E8E8",
"N.	c #EFEFEF",
"O.	c #F5F5F5",
"P.	c #C7C7C7",
"Q.	c #767676",
"R.	c #818181",
"S.	c #878787",
"T.	c #8D8D8D",
"U.	c #92A8B2",
"V.	c #387AA5",
"W.	c #3C7294",
"X.	c #47A2D7",
"Y.	c #6DCDFA",
"Z.	c #79D3FF",
"`.	c #95E2FF",
" +	c #87D0F3",
".+	c #E4E4E4",
"++	c #EBEBEB",
"@+	c #F0F0F0",
"#+	c #F8F8F8",
"$+	c #FAFAFA",
"%+	c #898989",
"&+	c #909090",
"*+	c #969FA4",
"=+	c #367BA7",
"-+	c #518E9D",
";+	c #87D8EC",
">+	c #A1EDFF",
",+	c #95E4FF",
"'+	c #88DAFF",
")+	c #86D5FD",
"!+	c #80CCF1",
"~+	c #6FAECC",
"{+	c #A2A2A2",
"]+	c #DFDFDF",
"^+	c #E6E6E6",
"/+	c #ECECEC",
"(+	c #F3F3F3",
"_+	c #9D9D9D",
":+	c #8B8B8B",
"<+	c #3E86B2",
"[+	c #3483B2",
"}+	c #8ADBFF",
"|+	c #7CD1F8",
"1+	c #77CEF5",
"2+	c #79CCF2",
"3+	c #7CC9F0",
"4+	c #68A2BF",
"5+	c #303030",
"6+	c #B3B3B3",
"7+	c #D9D9D9",
"8+	c #E5E5E5",
"9+	c #E9E9E9",
"0+	c #EEEEEE",
"a+	c #EDEDED",
"b+	c #B8B8B8",
"c+	c #8F8F8F",
"d+	c #7EC7EB",
"e+	c #3B83B2",
"f+	c #246E9E",
"g+	c #72C9F0",
"h+	c #6BC5EC",
"i+	c #69C4E9",
"j+	c #6EC5EC",
"k+	c #74C6ED",
"l+	c #63A1BF",
"m+	c #C8C8C8",
"n+	c #D1D1D1",
"o+	c #D8D8D8",
"p+	c #DDDDDD",
"q+	c #E2E2E2",
"r+	c #E7E7E7",
"s+	c #B5B5B5",
"t+	c #929292",
"u+	c #9F9F9F",
"v+	c #80BDDB",
"w+	c #357FAD",
"x+	c #145B83",
"y+	c #56B6DB",
"z+	c #57B8DC",
"A+	c #57B8DD",
"B+	c #62BDE4",
"C+	c #6DC3EB",
"D+	c #61A1BF",
"E+	c #BFBFBF",
"F+	c #CFCFCF",
"G+	c #D4D4D4",
"H+	c #DCDCDC",
"I+	c #DEDEDE",
"J+	c #C6C6C6",
"K+	c #959595",
"L+	c #9C9C9C",
"M+	c #7CBCDA",
"N+	c #3E8DBB",
"O+	c #3E6C85",
"P+	c #0A4C70",
"Q+	c #3EA7CA",
"R+	c #44AACE",
"S+	c #46ABD0",
"T+	c #56B5DC",
"U+	c #65BEE8",
"V+	c #5EA0BF",
"W+	c #B6B6B6",
"X+	c #BDBDBD",
"Y+	c #C4C4C4",
"Z+	c #CACACA",
"`+	c #D2D2D2",
" @	c #D3D3D3",
".@	c #C0C0C0",
"+@	c #A7A7A7",
"@@	c #77BAD9",
"#@	c #3888B7",
"$@	c #3B6A84",
"%@	c #023D5D",
"&@	c #1A95B8",
"*@	c #2F9EC2",
"=@	c #37A1C5",
"-@	c #4BAFD5",
";@	c #5FBCE6",
">@	c #5CA1C2",
",@	c #B2B2B2",
"'@	c #B9B9B9",
")@	c #BEBEBE",
"!@	c #C3C3C3",
"~@	c #ABABAB",
"{@	c #999999",
"]@	c #A4A4A4",
"^@	c #AAAAAA",
"/@	c #73B8D8",
"(@	c #2775A5",
"_@	c #00334B",
":@	c #0888A5",
"<@	c #1B94B4",
"[@	c #2297B9",
"}@	c #3CA8CF",
"|@	c #57B9E4",
"1@	c #58A1C2",
"2@	c #9B9B9B",
"3@	c #AFAFAF",
"4@	c #BBBBBB",
"5@	c #BABABA",
"6@	c #A8A8A8",
"7@	c #AEAEAE",
"8@	c #5DB8E1",
"9@	c #2272A2",
"0@	c #053949",
"a@	c #06657D",
"b@	c #087D97",
"c@	c #0B86A4",
"d@	c #0C8FAF",
"e@	c #219BBE",
"f@	c #50B5E2",
"g@	c #53ABD2",
"h@	c #676767",
"i@	c #A9A9A9",
"j@	c #B1B1B1",
"k@	c #B4B4B4",
"l@	c #A1A1A1",
"m@	c #1E6DA0",
"n@	c #0B3C46",
"o@	c #034A5E",
"p@	c #087188",
"q@	c #087791",
"r@	c #0887A5",
"s@	c #1892B3",
"t@	c #48B2E1",
"u@	c #727272",
"v@	c #7F7F7F",
"w@	c #A0A0A0",
"x@	c #A5A5A5",
"y@	c #A8B5BB",
"z@	c #115B90",
"A@	c #022634",
"B@	c #086579",
"C@	c #087D99",
"D@	c #087F9B",
"E@	c #0C819E",
"F@	c #3FAFDD",
"G@	c #71868F",
"H@	c #808080",
"I@	c #B0B0B0",
"J@	c #93B6C5",
"K@	c #0B5486",
"L@	c #052731",
"M@	c #064857",
"N@	c #085D6E",
"O@	c #086A80",
"P@	c #30A6D2",
"Q@	c #36ACDC",
"R@	c #6794A6",
"S@	c #828282",
"T@	c #A6A6A6",
"U@	c #79B5CD",
"V@	c #2892C4",
"W@	c #15597E",
"X@	c #02202A",
"Y@	c #03313C",
"Z@	c #03313E",
"`@	c #03475C",
" #	c #1F97BF",
".#	c #29A9DA",
"+#	c #4D9DBC",
"@#	c #606060",
"##	c #6B6B6B",
"$#	c #45AED5",
"%#	c #177DB1",
"&#	c #17597B",
"*#	c #13363D",
"=#	c #0D2D36",
"-#	c #0B303C",
";#	c #023647",
">#	c #08697F",
",#	c #0E83A6",
"'#	c #13A6D8",
")#	c #1AA5D3",
"!#	c #949494",
"~#	c #434343",
"{#	c #494949",
"]#	c #B8C2C5",
"^#	c #066499",
"/#	c #185E79",
"(#	c #0F3A45",
"_#	c #022533",
":#	c #07657D",
"<#	c #08A4D5",
"[#	c #6D9EAE",
"}#	c #BCBCBC",
"|#	c #C5C5C5",
"1#	c #74B8CE",
"2#	c #079DCF",
"3#	c #014D7A",
"4#	c #03222E",
"5#	c #0784AD",
"6#	c #08A1D3",
"7#	c #2FA1C7",
"8#	c #C2C2C2",
"9#	c #C9C9C9",
"0#	c #21A7D2",
"a#	c #047BAF",
"b#	c #095576",
"c#	c #022F44",
"d#	c #0791C4",
"e#	c #089FD1",
"f#	c #8CA9B2",
"g#	c #CCCCCC",
"h#	c #83BCCF",
"i#	c #025386",
"j#	c #024A74",
"k#	c #0790C2",
"l#	c #32A2C7",
"m#	c #CDCDCD",
"n#	c #D0D0D0",
"o#	c #22A4CF",
"p#	c #0684B6",
"q#	c #054F73",
"r#	c #135973",
"s#	c #025A8D",
"t#	c #089CCD",
"u#	c #6DACC3",
"v#	c #61B4D0",
"w#	c #025082",
"x#	c #054D71",
"y#	c #057AAB",
"z#	c #089ACA",
"A#	c #7EB3C6",
"B#	c #89BFD1",
"C#	c #036E9F",
"D#	c #0B526F",
"E#	c #04486D",
"F#	c #0683B5",
"G#	c #0897C8",
"H#	c #6AB2C9",
"I#	c #C3CCCF",
"J#	c #C8D1D4",
"K#	c #55AFCD",
"L#	c #067DAF",
"M#	c #05496E",
"N#	c #04476C",
"O#	c #036596",
"P#	c #078FBF",
"Q#	c #159AC7",
"R#	c #3BA6CA",
"S#	c #0896C6",
"T#	c #05486C",
"U#	c #0D516E",
"V#	c #014069",
"W#	c #025383",
"X#	c #036494",
"Y#	c #13566E",
"Z#	c #0D516B",
"                                                                                                ",
"                                                                                                ",
"                                                                                                ",
"                                                                                                ",
"                                                                                                ",
"                                      . + + .                             @ @ @                 ",
"                                  # $ % & & % * =                           @ @ @               ",
"                                - ; > , ' ) ! ~ { -                           @ @               ",
"                              ] ^ / ( _ : < [ } / ^ ]                           @ @             ",
"                            | 1 2 3 4 5 6 7 8 9 0 2 a b       @ @               @ @             ",
"                          c d e f g h i j k l m n o e p         @ @               @ @           ",
"                          q r s t u v w x y z A B C D E F         @ @             @ @           ",
"                        G H I J K L M w x : N A O P Q I R         @ @             @ @ @         ",
"                    S T U V W X K L M Y _ : N Z ` P  ...+.@.        @ @             @ @         ",
"                  #.$.%.&.&.*.X t 8 =.-.8 : N A O P  .;.>.,.        @ @             @ @         ",
"        '.).).).!.~.{.].^./.(._.n :.<.[.[.}.z A B |. .1.^.2.3.      @ @             @ @         ",
"      4.5.6.6.7.8.9.9.0.a.b.c._ d.:.<.[.[.[.e.m n f.g.h.i.j.k.        @ @           @ @         ",
"      l.m.n.n.o.p.p.p.q.r.s._.t.u.v.w.x.[.[.v.f.y.z.A.B.C.D.E.        @ @             @ @       ",
"      F.G.G.G.H.I.I.J.K.K.L.4 M.N.O.:.w.x.x.x.P.Q.R.S.T.U.K.V.        @ @             @ @       ",
"    W.X.Y.Y.Z.I.I.I.`. + +t Q..+++@+O.#+$+$+$+@+C  .%+&+*+ +=+        @ @             @ @       ",
"    -+;+>+>+,+'+'+'+)+!+~+L {+]+^+/+N.d.O.O.O.(+_+A.:+}.e.!+<+        @ @             @ @       ",
"    [+}+}+}+|+1+1+1+2+3+4+5+6+7+]+8+9+/+0+N.0+a+b+S.c+=._+d+e+        @ @             @ @       ",
"    f+g+g+g+h+i+i+i+j+k+l+4 m+n+o+p+q+8+^+r+r+8+s+:+t+e.u+v+w+        @ @ @           @ @       ",
"    x+y+y+y+z+A+A+A+B+C+D+5 E+P.F+G+7+H+I+I+I+H+J+c+K+L+{+M+N+O+      @ @ @           @ @       ",
"    P+Q+Q+Q+R+S+S+S+T+U+V+6 W+X+Y+Z+F+`+ @G+G+`+.@}.e.u++@@@#@$@      @ @ @           @ @       ",
"    %@&@&@&@*@=@=@=@-@;@>@7 ,@s+'@)@!@J+P.m+m+J+~@{@_+]@^@/@(@        @ @ @           @ @       ",
"    _@:@:@:@<@[@[@[@}@|@1@8 2@3@6+s+b+'@4@4@4@5@6@L+{+6@7@8@9@        @ @             @ @       ",
"    0@a@b@b@c@d@d@d@e@f@g@h@%+{+i@7@j@,@k@k@k@6+l@l@+@t.,@f@m@        @ @             @ @       ",
"    n@o@p@p@q@r@r@r@s@t@t@u@v@}.2@w@x@+@6@i@6@6@w@+@~@j@y@t@z@        @ @             @ @       ",
"      A@B@B@B@C@D@D@E@F@F@G@H@H@%+c+}.=.e.e.e._++@~@I@s+J@F@K@        @ @             @ @       ",
"      L@M@N@N@O@q@q@q@P@Q@R@A.Q.y.C v@S@A.S.%+T@~@I@s+5@U@V@W@        @ @           @ @ @       ",
"        X@Y@Y@Z@`@p@p@ #.#+#B.%+z @#h@##` ` K+t.j@s+5@E+$#%#&#        @ @           @ @         ",
"        *#=#=#=#-#;#>#,#'#)#!#=.C ~#{#: N B.7@,@W+4@E+]#'#^#/#      @ @             @ @         ",
"                  (#_#:#<#<#[#_+u+!#` z.x@I@6+b+}#.@|#1#2#3#        @ @             @ @         ",
"                      4#5#6#7#x@+@i@t.3@,@s+5@X+8#J+9#0#a#b#        @ @             @ @         ",
"                        c#d#e#f#7@I@6+s+'@}#E+!@P.g#h#e#i#        @ @             @ @           ",
"                          j#k#l#k@W+'@}#E+!@J+9#m#n#o#p#q#      @ @ @             @ @           ",
"                          r#s#t#u#X+.@!@|#m+g#F+`+v#t#w#        @ @               @ @           ",
"                            x#y#z#A#J+9#g#F+n+G+B#z#C#D#      @ @               @ @             ",
"                              E#F#G#H#I#n+ @J#K#G#L#M#                        @ @ @             ",
"                                N#O#P#Q#R#R#S#P#O#T#                          @ @               ",
"                                  U#V#W#X#X#W#V#U#                          @ @                 ",
"                                      Y#Z#Z#Y#                            @ @                   ",
"                                                                                                ",
"                                                                                                ",
"                                                                                                ",
"                                                                                                ",
"                                                                                                "};
