/* XPM */
static char * ports_xpm[] = {
"48 48 325 2",
"  	c None",
". 	c #BCB251",
"+ 	c #99891A",
"@ 	c #9C9263",
"# 	c #9B9890",
"$ 	c #4C4941",
"% 	c #99968F",
"& 	c #8D8354",
"* 	c #B8A61F",
"= 	c #ECDF45",
"- 	c #D3C022",
"; 	c #8C802C",
"> 	c #AA9D78",
", 	c #BAB9B3",
"' 	c #5E5B52",
") 	c #4B483F",
"! 	c #636158",
"~ 	c #46443B",
"{ 	c #5B584F",
"] 	c #463922",
"^ 	c #867127",
"/ 	c #B2A338",
"( 	c #DDCF46",
"_ 	c #E9DC3E",
": 	c #BFAC15",
"< 	c #887C3E",
"[ 	c #86837C",
"} 	c #454239",
"| 	c #68655C",
"1 	c #79766E",
"2 	c #78756C",
"3 	c #656259",
"4 	c #6C6961",
"5 	c #615B4F",
"6 	c #716131",
"7 	c #998531",
"8 	c #C3B23F",
"9 	c #E7DC49",
"0 	c #E2D435",
"a 	c #A28D14",
"b 	c #8F8655",
"c 	c #A9A69F",
"d 	c #625F56",
"e 	c #7E7B72",
"f 	c #807E75",
"g 	c #7C7971",
"h 	c #7B786F",
"i 	c #716E65",
"j 	c #615645",
"k 	c #806C2B",
"l 	c #A39334",
"m 	c #D2C342",
"n 	c #EDE246",
"o 	c #D6C327",
"p 	c #8B7B1C",
"q 	c #9D9369",
"r 	c #C5C3BD",
"s 	c #6B685F",
"t 	c #5C5951",
"u 	c #86837B",
"v 	c #858279",
"w 	c #838078",
"x 	c #827F76",
"y 	c #7F7C73",
"z 	c #6B6861",
"A 	c #685B3C",
"B 	c #8D782C",
"C 	c #B5A338",
"D 	c #D9CA45",
"E 	c #7E6E25",
"F 	c #392B0A",
"G 	c #594F41",
"H 	c #939088",
"I 	c #8D8B82",
"J 	c #8C8980",
"K 	c #8B887F",
"L 	c #89867E",
"M 	c #88857C",
"N 	c #666256",
"O 	c #726132",
"P 	c #9C8B38",
"Q 	c #A39858",
"R 	c #938555",
"S 	c #766846",
"T 	c #281A0B",
"U 	c #B6B3AC",
"V 	c #76736B",
"W 	c #928F86",
"X 	c #908D85",
"Y 	c #8F8C83",
"Z 	c #7B7871",
"` 	c #8C866C",
" .	c #A29559",
"..	c #908354",
"+.	c #695B3C",
"@.	c #3B2F21",
"#.	c #CFCCC5",
"$.	c #726F66",
"%.	c #9B988F",
"&.	c #99968D",
"*.	c #98958C",
"=.	c #96938B",
"-.	c #959289",
";.	c #8D8B80",
">.	c #8B8063",
",.	c #45341A",
"'.	c #A09D95",
").	c #A3A098",
"!.	c #A29F96",
"~.	c #9F9C93",
"{.	c #9C9990",
"].	c #C0BDB6",
"^.	c #A9A69D",
"/.	c #A8A59C",
"(.	c #A6A39B",
"_.	c #A5A299",
":.	c #9D9B92",
"<.	c #B3B2AA",
"[.	c #D7D4CD",
"}.	c #ACA9A0",
"|.	c #B0ADA5",
"1.	c #AFACA3",
"2.	c #ADAAA2",
"3.	c #AAA89F",
"4.	c #B9B6AD",
"5.	c #B8B5AC",
"6.	c #B6B3AA",
"7.	c #B3B0A8",
"8.	c #B5B2A9",
"9.	c #B2AFA6",
"0.	c #211E15",
"a.	c #CCC9C0",
"b.	c #C0BDB5",
"c.	c #BFBCB3",
"d.	c #BDBAB2",
"e.	c #BCB9B0",
"f.	c #BAB8AF",
"g.	c #25221A",
"h.	c #C3C0B8",
"i.	c #C7C5BC",
"j.	c #C9C6BD",
"k.	c #C6C3BA",
"l.	c #C5C2B9",
"m.	c #C2BFB6",
"n.	c #D6D3CA",
"o.	c #D0CDC5",
"p.	c #CFCCC3",
"q.	c #CDCAC2",
"r.	c #CAC7BF",
"s.	c #757269",
"t.	c #242118",
"u.	c #D4D2C9",
"v.	c #D3D0C7",
"w.	c #D2CFC6",
"x.	c #7E7338",
"y.	c #52420A",
"z.	c #80765C",
"A.	c #D7D4CC",
"B.	c #737168",
"C.	c #1E1B12",
"D.	c #CFC679",
"E.	c #C7B22A",
"F.	c #B9A63B",
"G.	c #796512",
"H.	c #968D6C",
"I.	c #DAD7CF",
"J.	c #DCD9D0",
"K.	c #DDDAD2",
"L.	c #D9D6CD",
"M.	c #6E6B62",
"N.	c #444138",
"O.	c #413E37",
"P.	c #C2B33B",
"Q.	c #F9EA4C",
"R.	c #F1E455",
"S.	c #D6CA4C",
"T.	c #B6A642",
"U.	c #9F8F49",
"V.	c #A39D8C",
"W.	c #E2DFD6",
"X.	c #E0DDD4",
"Y.	c #DFDCD3",
"Z.	c #3E3B32",
"`.	c #7C7973",
" +	c #8C780D",
".+	c #E2D34E",
"++	c #FAED59",
"@+	c #FFF159",
"#+	c #EDDF52",
"$+	c #D0C04B",
"%+	c #AFA03F",
"&+	c #9C9062",
"*+	c #E6E3DA",
"=+	c #E4E2D9",
"-+	c #E3E0D7",
";+	c #69665E",
">+	c #716F69",
",+	c #62521E",
"'+	c #968627",
")+	c #CFC04B",
"!+	c #ECDD55",
"~+	c #FCF159",
"{+	c #FAED56",
"]+	c #E7D951",
"^+	c #C7B846",
"/+	c #A89845",
"(+	c #9C967F",
"_+	c #E7E4DC",
":+	c #EAE7DF",
"<+	c #ECE9E0",
"[+	c #E9E6DD",
"}+	c #96938D",
"|+	c #615532",
"1+	c #6B560D",
"2+	c #AF9D38",
"3+	c #D6C74C",
"4+	c #F1E355",
"5+	c #F6EC55",
"6+	c #E2D04E",
"7+	c #C0AF44",
"8+	c #A6995B",
"9+	c #9D9363",
"0+	c #8F8979",
"a+	c #F0EDE4",
"b+	c #EFECE3",
"c+	c #EDEAE2",
"d+	c #66635B",
"e+	c #6F6C63",
"f+	c #98958F",
"g+	c #897E68",
"h+	c #4C3F0D",
"i+	c #837321",
"j+	c #BDAD44",
"k+	c #DFD04E",
"l+	c #F6E756",
"m+	c #E4D658",
"n+	c #A89C5B",
"o+	c #958654",
"p+	c #796B52",
"q+	c #F3F0E7",
"r+	c #F6F3EA",
"s+	c #F1EFE6",
"t+	c #555249",
"u+	c #5F5235",
"v+	c #5C4604",
"w+	c #9B8931",
"x+	c #E4D651",
"y+	c #C9BC5C",
"z+	c #A09359",
"A+	c #887951",
"B+	c #6F6251",
"C+	c #545148",
"D+	c #514E45",
"E+	c #59564F",
"F+	c #46370F",
"G+	c #755F15",
"H+	c #AD9D3E",
"I+	c #ACA05B",
"J+	c #998B55",
"K+	c #79694E",
"L+	c #554C45",
"M+	c #27241B",
"N+	c #2E2B22",
"O+	c #58554C",
"P+	c #423F37",
"Q+	c #A6A59F",
"R+	c #5F523B",
"S+	c #4C3702",
"T+	c #998D4F",
"U+	c #85764B",
"V+	c #42321E",
"W+	c #737169",
"X+	c #5F5C54",
"Y+	c #A8A59F",
"Z+	c #797671",
"`+	c #7B7872",
" @	c #4F4217",
".@	c #41341A",
"+@	c #867E75",
"@@	c #807E76",
"#@	c #56544B",
"$@	c #A09D98",
"%@	c #8F8D89",
"&@	c #2F2C24",
"*@	c #59564E",
"=@	c #56544C",
"-@	c #AAA9A3",
";@	c #636159",
">@	c #C6C5C0",
",@	c #3B382F",
"'@	c #96958F",
")@	c #48453C",
"!@	c #BDBCB6",
"~@	c #4C4942",
"{@	c #7F7C76",
"]@	c #3C3931",
"^@	c #BAB8B2",
"/@	c #615E55",
"(@	c #2B281F",
"_@	c #524F48",
":@	c #98958D",
"<@	c #49463F",
"[@	c #BAB9B5",
"}@	c #76736E",
"|@	c #524F46",
"1@	c #1C1A11",
"2@	c #838079",
"3@	c #343128",
"4@	c #716F68",
"5@	c #AFADA9",
"6@	c #444139",
"7@	c #828079",
"8@	c #3C3932",
"9@	c #54524B",
"0@	c #322F27",
"a@	c #3F3C34",
"b@	c #82807B",
"c@	c #4E4B42",
"d@	c #B0AFA9",
"e@	c #48453E",
"f@	c #B8B6B0",
"g@	c #6F6E66",
"h@	c #4F4C44",
"i@	c #2A271E",
"j@	c #A09D96",
"                                                                                                ",
"                                                                                                ",
"                                                                . + @                           ",
"                                                      # $ %   & * = - ; >                       ",
"                                                  , ' ) ! ~ { ] ^ / ( _ : <                     ",
"                                                [ } | 1 2 1 3 4 5 6 7 8 9 0 a b                 ",
"                                            c $ d e f e e e g g h i j k l m n o p q             ",
"                                        r s t e u v v v w w x f f y y z A B C ( D E F G         ",
"                                      H { g I J K K L L L M M u u u v w f N O P Q R S T         ",
"                                  U ' V W H W W X X Y Y I I I J J K L K L M Z `  ...+.@.        ",
"                              #.h $.H %.%.&.&.*.=.=.=.-.H H W W W X X Y Y I J J ;.>.,.          ",
"                            '.i H ).!.'.'.~.~.~.{.{.%.%.%.&.&.*.=.=.=.-.-.H W W W h 2           ",
"                        ].V X ^.^.^././.(.(._._.).).!.!.'.~.~.:.{.{.%.%.&.&.&.*.*.=.y d <.      ",
"                    [.Y J }.|.|.|.1.2.2.}.}.3.3.^.^./././.(._.).).!.!.'.'.'.~.:.:.{.%.W i '     ",
"                  1.J ^.4.4.5.5.6.6.7.8.7.9.|.9.|.1.1.2.}.3.3.^.3.^././.(._._._.).!.:.!.u 0.    ",
"              a.Y ^.b.b.c.c.c.d.e.e.e.f.f.5.5.5.6.6.8.7.7.7.9.|.|.1.1.2.}.}.}.^._._.{.2 s g.    ",
"            /.^.h.i.j.k.k.k.l.h.h.h.m.b.b.c.c.d.d.e.f.f.4.5.5.5.6.6.8.7.7.9.1.2.3.L V V | g.    ",
"            ^.n.o.a.p.q.a.a.r.j.j.i.i.i.k.l.l.h.h.m.m.b.b.c.c.d.e.e.f.f.4.8.8.:.x y h s.| t.    ",
"            (.u.v.u.w.o.v.w.o.o.o.p.q.q.a.a.r.r.j.j.i.i.k.l.l.h.h.m.m.b.c.|.H L w y 1 s.| t.    ",
"      x.y.z.7.p.o.r.a.n.n.u.A.A.n.u.u.v.w.w.w.o.o.p.q.q.a.a.r.j.j.d.1.2.).-.Y L w e 1 B.| C.    ",
"    D.E.F.G.H.4.r.j.k.m.a.I.I.J.K.I.I.L.L.L.A.n.n.n.u.v.v.w.o.o.m.%.1.6.|.(.=.K w e 1 M.N.O.    ",
"    P.Q.R.S.T.U.V.b.m.c.d.d.w.W.W.W.X.X.Y.K.K.J.K.J.I.I.L.L.n.u.%.W '.}.8.8.}.{.M e ' Z.`.      ",
"     +.+++@+#+$+%+&+3.f.5.6.9.f.K.*+*+*+=+=+-+-+-+W.W.X.Y.J.L.1.y f K &.(.9.4.9.~.;+>+          ",
"    ,+'+)+!+~+{+]+^+/+(+1.|.1.}.^.h._+:+<+:+[+[+[+_+*+=+=+o.e.X M.M.s.w =.!.|.4.8.1 }+          ",
"      |+1+2+3+4+@+5+6+7+8+9+0+(._.).(.p.a+b+a+b+c+<+c+W.r.m.e.f d+M.M.i h M {.9.f.1.e+f+        ",
"        g+h+i+j+k+l+@+m+n+o+p+!.~.:.{.%.2.X.q+r+s+c+J.p.i.m.e.s.t+d 4 M.M.$.L '.4.f.~.)         ",
"            u+v+w+^+x+y+z+A+B+:.%.*.=.-.W X e.[+<+L.v.q.i.b.f.-.C+D+t | M.M.y H 8.h./.s.E+      ",
"                F+G+H+I+J+K+L+H =.H W X I J L K X.L.w.a.k.b.f.|.e+M+N+O+| M.V I 1.c.3.I P+Q+    ",
"                  R+S+T+U+V+W+X+V Y I K L M v L Y.A.w.a.k.c.!.y Y+  Z+t.C+4 s.Y 3.4./.Y { `+    ",
"                       @.@+@    @@#@1 u v x x v K.A.w.r.4.W $@        %@&@*@s.Y }.4./.Y ;+=@    ",
"                                  -@;@O+V y g f K.A.j.3.% >@              N+$.W }.6._.Y B.,@    ",
"                                      '@)@O+s.g J.c.{.!@                  ~@M.&.(.3.:.K $.N+    ",
"                                          {@]@s 8.^@                      /@K _._.:.H w s (@    ",
"                                              _@                        :@%.3._.:.H M V ' &@    ",
"                                                                      w /.8.(.{.W M 1 | } <@    ",
"                                                                  [@L b.b.(.=.Y M 1 4 t &@}@    ",
"                                                                  w i.i.1.=.I v V M.d |@1@      ",
"                                                                2@4.j.|.=.I v s.M.d+O+3@4@      ",
"                                                              5@v a.f.&.I K 1 M.| O+N.6@        ",
"                                                              7@H h.|.H I M $.s O+,@8@          ",
"                                                              |@%.f.|.&.I M s.X+M+9@            ",
"                                                              0@I 6.4.3.&.Y 2 a@b@              ",
"                                                              0@V !.4.4.9.'.M c@d@              ",
"                                                              e@d y :.9.f.|.{.J X+f@            ",
"                                                              g@h@M.V I (.3.(.{.K C+            ",
"                                                                i@4 4 i v {.(.(.*.s.j@          ",
"                                                                                                ",
"                                                                                                "};
