/* XPM */
static char * progs_xpm[] = {
"48 48 343 2",
"  	c None",
". 	c #000000",
"+ 	c #F6F9FF",
"@ 	c #ABD5FF",
"# 	c #94B8DC",
"$ 	c #DEA69C",
"% 	c #E0B2AB",
"& 	c #E0B2AA",
"* 	c #DFB1A9",
"= 	c #DCACA3",
"- 	c #DAA49B",
"; 	c #BE8D85",
"> 	c #BBDBFD",
", 	c #99CCFF",
"' 	c #84B1DD",
") 	c #C5E1FF",
"! 	c #6598CB",
"~ 	c #5984AF",
"{ 	c #CB8275",
"] 	c #C97261",
"^ 	c #C97061",
"/ 	c #C87060",
"( 	c #C87364",
"_ 	c #CB7363",
": 	c #B06D63",
"< 	c #A3BFDB",
"[ 	c #6294C5",
"} 	c #496E93",
"| 	c #9CBCDD",
"1 	c #416283",
"2 	c #7894B2",
"3 	c #FFFFFF",
"4 	c #FDFDFD",
"5 	c #FDFDFE",
"6 	c #FCFCFC",
"7 	c #DDDDDD",
"8 	c #9BB5D0",
"9 	c #344F69",
"0 	c #6D86A0",
"a 	c #A8C4E2",
"b 	c #A4B7CA",
"c 	c #FEFEFE",
"d 	c #B6CADE",
"e 	c #A8B5C3",
"f 	c #8FA1B5",
"g 	c #B4D9FF",
"h 	c #6699CC",
"i 	c #5885B1",
"j 	c #A0BBD5",
"k 	c #5C8AB8",
"l 	c #4A6E94",
"m 	c #727272",
"n 	c #C0C0C0",
"o 	c #B8B8B8",
"p 	c #A4A4A4",
"q 	c #696969",
"r 	c #4A7095",
"s 	c #FBFBFB",
"t 	c #F9F9F9",
"u 	c #F3F3F3",
"v 	c #FAFAFA",
"w 	c #565656",
"x 	c #5B5B5B",
"y 	c #A0BBD6",
"z 	c #B3D8FD",
"A 	c #5986B1",
"B 	c #5D8CBB",
"C 	c #4A7096",
"D 	c #F8F8F8",
"E 	c #ACC3DA",
"F 	c #F6F6F6",
"G 	c #F2F2F2",
"H 	c #B7B7B8",
"I 	c #4C739A",
"J 	c #E9EFF7",
"K 	c #C6C6C7",
"L 	c #C6C7C7",
"M 	c #C9C9C9",
"N 	c #C8C8C8",
"O 	c #C7C7C8",
"P 	c #BFBFBF",
"Q 	c #B7C1C9",
"R 	c #C0D1E2",
"S 	c #89B0D6",
"T 	c #A7BED5",
"U 	c #ACC2D9",
"V 	c #ACC2DA",
"W 	c #B6C9DE",
"X 	c #CDDAE7",
"Y 	c #BFCFE2",
"Z 	c #849EB8",
"` 	c #5986B2",
" .	c #5B89B6",
"..	c #5B89B7",
"+.	c #5D8AB8",
"@.	c #5A88B5",
"#.	c #4A6F94",
"$.	c #5B8AB8",
"%.	c #5A87B5",
"&.	c #B2D7FD",
"*.	c #527BA5",
"=.	c #556576",
"-.	c #3C3C3B",
";.	c #3D3D3D",
">.	c #3F3F3F",
",.	c #404040",
"'.	c #414140",
").	c #40403F",
"!.	c #40403E",
"~.	c #424240",
"{.	c #434341",
"].	c #444442",
"^.	c #444443",
"/.	c #454544",
"(.	c #464646",
"_.	c #474746",
":.	c #474747",
"<.	c #454545",
"[.	c #3E3E3E",
"}.	c #465769",
"|.	c #334F6A",
"1.	c #36536F",
"2.	c #527DA6",
"3.	c #B1D6FC",
"4.	c #6598CA",
"5.	c #4F78A1",
"6.	c #464645",
"7.	c #E2E2E1",
"8.	c #E4E4E3",
"9.	c #DDE0E4",
"0.	c #E2E4E7",
"a.	c #E3E6E9",
"b.	c #EDEDEC",
"c.	c #EBEBEA",
"d.	c #ECEBEB",
"e.	c #EEEEEE",
"f.	c #EDEDED",
"g.	c #E9E9E9",
"h.	c #E0E0E0",
"i.	c #AFADAC",
"j.	c #484747",
"k.	c #3A5877",
"l.	c #4A7197",
"m.	c #5E7992",
"n.	c #416284",
"o.	c #496E94",
"p.	c #4A4A49",
"q.	c #E4E5E4",
"r.	c #D5D5D3",
"s.	c #CECECA",
"t.	c #CCCCC8",
"u.	c #71777F",
"v.	c #25384B",
"w.	c #26394D",
"x.	c #273A4E",
"y.	c #6F7F90",
"z.	c #C2C1BF",
"A.	c #DDDCDB",
"B.	c #DFDEDD",
"C.	c #D8D8D8",
"D.	c #CDCDCD",
"E.	c #B7B6B6",
"F.	c #B4B4B6",
"G.	c #B7B7BA",
"H.	c #ABA9AA",
"I.	c #454444",
"J.	c #436689",
"K.	c #5886B2",
"L.	c #7FA2C3",
"M.	c #6092C2",
"N.	c #4E769D",
"O.	c #4C4C4C",
"P.	c #E6E6E4",
"Q.	c #CECEC9",
"R.	c #D1D1CD",
"S.	c #CFCEC9",
"T.	c #203041",
"U.	c #395774",
"V.	c #43668A",
"W.	c #375472",
"X.	c #DFE0DE",
"Y.	c #E0E0DF",
"Z.	c #D9D9D9",
"`.	c #C8C8C7",
" +	c #B6B6B6",
".+	c #ABABAC",
"++	c #AEADAE",
"@+	c #B6B4B3",
"#+	c #A1A2A2",
"$+	c #434443",
"%+	c #44688C",
"&+	c #5783B0",
"*+	c #7FA0C2",
"=+	c #426486",
"-+	c #4C4C4B",
";+	c #E5E5E3",
">+	c #CFCEC8",
",+	c #D4D4CE",
"'+	c #D7D7D3",
")+	c #4E769F",
"!+	c #E6E6E5",
"~+	c #E3E3E3",
"{+	c #DCDCDC",
"]+	c #C5C5C5",
"^+	c #B6B6B8",
"/+	c #AFAFB1",
"(+	c #A6A4A4",
"_+	c #B2B1B1",
":+	c #B6B5B5",
"<+	c #A5A8A3",
"[+	c #444644",
"}+	c #4B4B48",
"|+	c #E9E9E6",
"1+	c #D9D9D5",
"2+	c #DCDBD8",
"3+	c #DEDDDB",
"4+	c #E7E7E7",
"5+	c #D6D6D6",
"6+	c #C3C3C3",
"7+	c #B9BAB9",
"8+	c #B4B4B4",
"9+	c #BDBBBB",
"0+	c #BBB9BA",
"a+	c #C1C1C0",
"b+	c #A5A9A2",
"c+	c #414240",
"d+	c #4F4F4D",
"e+	c #ECEBE9",
"f+	c #DDDCD9",
"g+	c #DEDEDB",
"h+	c #DFDFDF",
"i+	c #BDBDBE",
"j+	c #C1C2C4",
"k+	c #C5C3C3",
"l+	c #C8C7C6",
"m+	c #C4C3C2",
"n+	c #BCBDBC",
"o+	c #BCBEBB",
"p+	c #929490",
"q+	c #3C3D3C",
"r+	c #50504E",
"s+	c #EDECEA",
"t+	c #DDDCDA",
"u+	c #DDDDDB",
"v+	c #DFDFDD",
"w+	c #D1D1D2",
"x+	c #C8C8C9",
"y+	c #CCCAC9",
"z+	c #C3C2C2",
"A+	c #BABCB8",
"B+	c #B9BDB6",
"C+	c #B9BEB6",
"D+	c #A1A39F",
"E+	c #393A39",
"F+	c #4F504F",
"G+	c #ECECEB",
"H+	c #DDDEDC",
"I+	c #D5D5D5",
"J+	c #C7C6C5",
"K+	c #B7B8B5",
"L+	c #B6BAB5",
"M+	c #B7BBB4",
"N+	c #B4B9B1",
"O+	c #A9ACA6",
"P+	c #838482",
"Q+	c #343433",
"R+	c #50504F",
"S+	c #DEDEDD",
"T+	c #DFDFDE",
"U+	c #D5D4D3",
"V+	c #C0BFBF",
"W+	c #BABABA",
"X+	c #B5B9B2",
"Y+	c #B5BAB1",
"Z+	c #ABAEA8",
"`+	c #9FA19D",
" @	c #9EA09C",
".@	c #7A7B7A",
"+@	c #323332",
"@@	c #B3D8FE",
"#@	c #DBDCDB",
"$@	c #D7D7D6",
"%@	c #3D5C7B",
"&@	c #495766",
"*@	c #B2B3B1",
"=@	c #B2B5B0",
"-@	c #ABAEA7",
";@	c #9D9F9B",
">@	c #9B9D98",
",@	c #999B97",
"'@	c #959693",
")@	c #757571",
"!@	c #323130",
"~@	c #546A80",
"{@	c #5D8DBC",
"]@	c #4F779F",
"^@	c #D6D6D5",
"/@	c #D0D0CE",
"(@	c #C1C2C0",
"_@	c #6A7887",
":@	c #2F4760",
"<@	c #3A5876",
"[@	c #374B5F",
"}@	c #A1A1A3",
"|@	c #D3D4D3",
"1@	c #AFB3AC",
"2@	c #B0B4AC",
"3@	c #999A96",
"4@	c #979995",
"5@	c #949592",
"6@	c #8B8C8A",
"7@	c #878785",
"8@	c #737470",
"9@	c #30302F",
"0@	c #3A5A79",
"a@	c #859EB7",
"b@	c #426587",
"c@	c #456A8E",
"d@	c #495A6B",
"e@	c #364350",
"f@	c #585857",
"g@	c #999A98",
"h@	c #8D8E8E",
"i@	c #848485",
"j@	c #878686",
"k@	c #A0A09F",
"l@	c #AEAEAD",
"m@	c #ABABAB",
"n@	c #A1A2A0",
"o@	c #838581",
"p@	c #7B7E77",
"q@	c #737571",
"r@	c #686A67",
"s@	c #636563",
"t@	c #5E5E5C",
"u@	c #5E5E5D",
"v@	c #5D5D5B",
"w@	c #636360",
"x@	c #2E2F2D",
"y@	c #212121",
"z@	c #2C435A",
"A@	c #35506C",
"B@	c #1B2A3A",
"                                                                                                ",
"                                                                                                ",
"                                                                                                ",
"        . . . . . . . . . . . . . . . . . . . . . . . . . . . . . . . . . . . . .               ",
"      . + @ # $ % & & & & & & & & & & & & & & & & & & & & & & & * * * = - ; > , ' .             ",
"      . ) ! ~ { ] ^ ^ ^ ^ ^ ^ ^ ^ ^ ^ ^ ^ ^ ^ ^ ^ ^ ^ ^ ^ ^ ^ ^ / ^ ^ ( _ : < [ } .             ",
"      . | 1 2 3 3 4 4 4 4 4 4 4 4 4 4 4 4 4 4 4 3 3 4 4 4 4 4 3 3 3 3 5 6 7 8 9 0 .             ",
"      . a b b 3 c c c c c c c c c c c c c c c c c c c c c c c c c c c c c 7 d e f .             ",
"      . g h i 3 3 3 c c c c c c c c c c c c c c c c c c c c c c c c c c c 7 j k l .             ",
"      . g h i 3 3 3 c c c c c c c c c c c c c c c c c c c c c c c c c c c 7 j k l .             ",
"      . g h i 3 3 3 m n o o o o o o o o o o o o o o o o o o o o p o q c c 7 j k r .             ",
"      . g h i 3 3 3 s s s s s s s s s s s s s s s s s s s s s s s t u c c 7 j k r .             ",
"      . g h i 3 3 3 s s s s s s s s s s s s s s s s s s s s s s s t u c c 7 j k l .             ",
"      . g h i 3 3 3 c c c c c c c c c c c c c c c c c c c c c c c c c c c 7 j k l .             ",
"      . g h i 3 3 3 3 3 4 s s s s s s s s s s s s s s s s s s s c 4 v c c 7 j k l .             ",
"      . g h i 3 3 3 w n o o o o o o o o o o o o o o o o o o o o p o x c c 7 j k r .             ",
"      . g h i 3 3 3 s s s s s s s s s s s s s s s s s s s s s s s t u c c 7 y k r .             ",
"      . z ! A 3 3 3 c c c c c c c c c c c c c c c c c c c c c 3 3 3 3 c c 7 j B C .             ",
"      . g h i 3 3 3 c c c c c c c c c c c c c c c c c c c c c c c c c c c 7 j k l .             ",
"      . g h i 3 3 3 3 3 4 s s s s s s s s s s s s s s s s s s s c 4 v c c 7 j k l .             ",
"      . g h i 3 3 3 m n o o o o o o o o o o o o o o o o o o o o p o x c c 7 j k l .             ",
"      . g h i 3 3 3 s s s s s s s s s s s s s s s s s s s s s s s t u c c 7 j k r .             ",
"      . g h i c c c c c 6 v v v v v v v v v v v v v v v v v v v c 6 D c c 7 E k r .             ",
"      . g h i 5 5 D F F F F F F F F F F F F F F F F F F F F F F F F F F G H d k l .             ",
"      . g h I J n K L M N N N N N N N N N N N N N N N N N N N N M M N O P Q R k l .             ",
"      . g h h S T U V E E E E E E E E E E E E E E E E E E E E E V E E W X Y Z k l .             ",
"      . g h ! ! `  ...+.+.+.+.+.+.+.+.+.+.+.+.+.+.+.+.+.+.+.+.+...k k ..@...k k #..             ",
"      . g ! ! ! $.%. .`  . .i ..+.+.+.+.+.+.+.+.+.+.+.+.+.+...k k ..@...k k k k l .             ",
"      . &.! ! ! *.=.-.;.>.,.'.'.).!.~.{.].^.^./.(._.:.:.<.[.}.|.1.1.1.1.2.k k k l .             ",
"      . 3.4.4.4.5.6.F 7.8.8.9.0.a.a.a.a.b.c.c.d.e.e.f.g.h.i.j.k.l.l.l.m.n.......o..             ",
"      . 3.4.4.4.5.p.q.r.s.t.u.v.w.w.x.y.z.A.A.B.C.D.E.F.G.H.I.J.K.K.K.L.n.......o..             ",
"      . z M.M.M.N.O.P.Q.R.S.T.U.V.V.V.W.X.Y.Y.Z.`. +.+++@+#+$+%+&+&+&+*+=+@.@.@.o..             ",
"      . &.M.M.M.N.-+;+>+,+'+T.=+)+)+)+W.!+~+{+]+^+/+(+_+:+<+[+%+&+&+&+*+=+@.@.@.o..             ",
"      . &.M.M.M.N.}+|+1+2+3+T.=+)+)+)+W.4+5+6+7+8+9+0+a+a+b+c+%+&+&+&+*+=+@.@.@.o..             ",
"      . &.M.M.M.N.d+e+f+g+X.T.=+)+)+)+W.h+i+i+j+k+l+m+n+o+p+q+%+&+&+&+*+=+@.@.@.o..             ",
"      . &.M.M.M.N.r+s+t+u+v+T.=+)+)+)+W.w+x+O y+z+7+A+B+C+D+E+%+&+&+&+*+=+@.@.@.o..             ",
"      . &.M.M.M.N.F+G+t+H+X.T.=+)+)+)+W.I+l+J+m+K+L+M+N+O+P+Q+%+&+&+&+*+=+@.@.@.o..             ",
"      . &.M.M.M.N.R+G+u+S+T+T.=+)+)+)+W.U+V+V+W+X+Y+Z+`+ @.@+@%+&+&+&+*+=+@.@.@.o..             ",
"      . @@M.M.M.N.R+G+#@#@$@T.%@)+)+V.&@h+*@*@=@-@;@>@,@'@)@!@%+&+&+&+*+=+@.@.@.o..             ",
"      . ~@{@{@{@]@F+c.^@/@(@_@:@<@<@[@}@|@1@1@2@3@4@5@6@7@8@9@0@o.o.o.a@b@......c@.             ",
"      . . d@d@e@. f@W+g@h@i@j@k@l@l@m@n@o@p@p@q@r@s@t@u@v@w@x@. . . . y@z@A@A@A@B@.             ",
"        . . . .   . . . . . . . . . . . . . . . . . . . . . .           . . . . . .             ",
"                                                                                                ",
"                                                                                                ",
"                                                                                                ",
"                                                                                                ",
"                                                                                                ",
"                                                                                                "};
