/* XPM */
static char * progman_xpm[] = {
"17 16 53 1",
" 	c None",
".	c #26615E",
"+	c #FFFFFF",
"@	c #555555",
"#	c #878787",
"$	c #C3C3C3",
"%	c #409088",
"&	c #F5F5F5",
"*	c #377971",
"=	c #3E8C85",
"-	c #38837D",
";	c #337A75",
">	c #F2F2F2",
",	c #F7F7F7",
"'	c #FDFDFD",
")	c #2C6863",
"!	c #317873",
"~	c #2B6E6A",
"{	c #256462",
"]	c #F1F1F1",
"^	c #ECECEC",
"/	c #255C58",
"(	c #225956",
"_	c #466E6C",
":	c #E7E7E7",
"<	c #075D83",
"[	c #1998C2",
"}	c #168FB8",
"|	c #1386AF",
"1	c #0F7CA4",
"2	c #0C739A",
"3	c #096990",
"4	c #147A9C",
"5	c #127394",
"6	c #0F6C8D",
"7	c #0C6484",
"8	c #0A5C7C",
"9	c #075474",
"0	c #FEFEFE",
"a	c #FBFBFB",
"b	c #F8F8F8",
"c	c #F4F4F4",
"d	c #F0F0F0",
"e	c #EAEAEA",
"f	c #E6E6E6",
"g	c #FCFCFC",
"h	c #FAFAFA",
"i	c #EFEFEF",
"j	c #F9F9F9",
"k	c #F6F6F6",
"l	c #EEEEEE",
"m	c #E8E8E8",
"n	c #E9E9E9",
"     ..          ",
"     .+..        ",
"    @#$#%..      ",
"    @&#*=-;..    ",
"   @>,',))!~{..  ",
"   @]&,&]^/((+$_ ",
"  @]]&,&]^::#$#_ ",
"<<<<<<<<<<<<:#@  ",
"<+$[}|123+$<::@  ",
"<$#456789$#<:@   ",
"@0+0'abcdef@:@   ",
"@000gh,cief@@    ",
"@g'gajk>lmf@@    ",
"@hahj,cd^:f@     ",
"@,b,kc]lnff@     ",
"@@@@@@@@@@@@     "};
