/* XPM */
static char * regedit_xpm[] = {
"16 16 12 1",
" 	c None",
".	c #000000",
"+	c #FFFFFF",
"@	c #DCDCDC",
"#	c #008080",
"$	c #00C0C0",
"%	c #808080",
"&	c #585858",
"*	c #A0A0A0",
"=	c #FFFFC0",
"-	c #C0C0C0",
";	c #C0C000",
"................",
".+@#$$$$$$$$#+@.",
".@%##########@%.",
".&&&&&&&&&&&&&&.",
".*======%=====*.",
".*=====-&.-===@.",
".*=====&+-.===@.",
".*===%=.-@.%==*.",
".*==-&.-..;===*.",
".*==&+-.;%====*.",
".*=%.-@.%=====@.",
".*==-..;======@.",
".*====%=======*.",
".-+++++++++++++.",
"................",
"                "};
