/* XPM */
static char * restore_xpm[] = {
"48 48 526 2",
"  	c None",
". 	c #07441D",
"+ 	c #06401A",
"@ 	c #063B17",
"# 	c #053415",
"$ 	c #043014",
"% 	c #042C13",
"& 	c #042A11",
"* 	c #042811",
"= 	c #042712",
"- 	c #14502A",
"; 	c #1A5730",
"> 	c #215D37",
", 	c #265E3A",
"' 	c #295D3A",
") 	c #285838",
"! 	c #1F4F2F",
"~ 	c #174929",
"{ 	c #0F4422",
"] 	c #083F1A",
"^ 	c #093619",
"/ 	c #0A2E18",
"( 	c #417B55",
"_ 	c #68A27C",
": 	c #8BC19D",
"< 	c #A2C8AF",
"[ 	c #B1CDBA",
"} 	c #B1CDB9",
"| 	c #89BD9A",
"1 	c #62B07C",
"2 	c #3CA35E",
"3 	c #199341",
"4 	c #1B6F37",
"5 	c #21442D",
"6 	c #070F0A",
"7 	c #000000",
"8 	c #134F28",
"9 	c #2C6741",
"0 	c #4B7F5E",
"a 	c #709C7F",
"b 	c #93B89F",
"c 	c #9BCBAB",
"d 	c #99D5AD",
"e 	c #8FD3A5",
"f 	c #83CE9C",
"g 	c #72C48E",
"h 	c #58AD75",
"i 	c #419E61",
"j 	c #2A924D",
"k 	c #14843A",
"l 	c #146831",
"m 	c #164728",
"n 	c #072913",
"o 	c #031B0B",
"p 	c #021207",
"q 	c #010602",
"r 	c #135029",
"s 	c #1A552F",
"t 	c #2D6641",
"u 	c #619573",
"v 	c #98C2A6",
"w 	c #C3E5CE",
"x 	c #CAE9D3",
"y 	c #ABDCBB",
"z 	c #7FC998",
"A 	c #52B874",
"B 	c #2CA656",
"C 	c #10933E",
"D 	c #0D7832",
"E 	c #0B652B",
"F 	c #0A5826",
"G 	c #095122",
"H 	c #063918",
"I 	c #052D13",
"J 	c #031C0C",
"K 	c #010B04",
"L 	c #010603",
"M 	c #3D7850",
"N 	c #659A76",
"O 	c #8FBB9D",
"P 	c #BDD7C5",
"Q 	c #B8E0C5",
"R 	c #A1E1B5",
"S 	c #85DCA1",
"T 	c #6BC789",
"U 	c #4EAC6D",
"V 	c #238D48",
"W 	c #127836",
"X 	c #0B662B",
"Y 	c #095223",
"Z 	c #052F14",
"` 	c #021208",
" .	c #021007",
"..	c #010E06",
"+.	c #010B05",
"@.	c #010904",
"#.	c #03200D",
"$.	c #031A0B",
"%.	c #1E5B33",
"&.	c #36714A",
"*.	c #679E78",
"=.	c #98C2A5",
"-.	c #BEDEC8",
";.	c #C0E6CC",
">.	c #9DDCB1",
",.	c #71CD8F",
"'.	c #4FBF75",
").	c #39A45E",
"!.	c #268447",
"~.	c #10672E",
"{.	c #08471E",
"].	c #04240F",
"^.	c #02170A",
"/.	c #021308",
"(.	c #010C05",
"_.	c #316B45",
":.	c #669C77",
"<.	c #95C2A1",
"[.	c #BBDCC4",
"}.	c #C8E9D2",
"|.	c #96DBAD",
"1.	c #6BC98A",
"2.	c #45B56A",
"3.	c #279D50",
"4.	c #157E3A",
"5.	c #0A5D28",
"6.	c #07401B",
"7.	c #031F0D",
"8.	c #000602",
"9.	c #02190B",
"0.	c #021107",
"a.	c #000502",
"b.	c #4B825D",
"c.	c #9BC6A7",
"d.	c #C7E0CE",
"e.	c #BFE6CB",
"f.	c #3FB869",
"g.	c #2FAC5B",
"h.	c #2EA056",
"i.	c #167D3A",
"j.	c #0C5F2A",
"k.	c #021609",
"l.	c #010A04",
"m.	c #021709",
"n.	c #124E27",
"o.	c #29643E",
"p.	c #75A184",
"q.	c #6AC98A",
"r.	c #2DAD5A",
"s.	c #209E4C",
"t.	c #1E8C44",
"u.	c #0E622C",
"v.	c #073D1A",
"w.	c #010D05",
"x.	c #000301",
"y.	c #16512B",
"z.	c #508763",
"A.	c #9FC1AA",
"B.	c #D3ECDA",
"C.	c #A4E2B8",
"D.	c #70CE8F",
"E.	c #42B769",
"F.	c #2BA556",
"G.	c #1D9245",
"H.	c #127633",
"I.	c #08451E",
"J.	c #1E5933",
"K.	c #7CAB8C",
"L.	c #B9D7C3",
"M.	c #CDEAD6",
"N.	c #85DCA2",
"O.	c #48C272",
"P.	c #1CA64C",
"Q.	c #1A9142",
"R.	c #137E38",
"S.	c #0C5F29",
"T.	c #1E5632",
"U.	c #407352",
"V.	c #9BC3A8",
"W.	c #B9DFC5",
"X.	c #B0E3C0",
"Y.	c #6ED08E",
"Z.	c #3EB968",
"`.	c #1B9F4A",
" +	c #138139",
".+	c #0D682D",
"++	c #08491F",
"@+	c #020F06",
"#+	c #2A603D",
"$+	c #618E71",
"%+	c #B2D4BD",
"&+	c #AFE2C0",
"*+	c #8BDAA5",
"=+	c #56C17A",
"-+	c #37B161",
";+	c #219C4D",
">+	c #117434",
",+	c #095123",
"'+	c #053115",
")+	c #69997A",
"!+	c #C4DCCB",
"~+	c #A7E2BA",
"{+	c #66D18A",
"]+	c #31B35F",
"^+	c #1EA94F",
"/+	c #169C45",
"(+	c #116F32",
"_+	c #083819",
":+	c #2E6842",
"<+	c #6B9C7C",
"[+	c #C8DECE",
"}+	c #9EDCB2",
"|+	c #53C579",
"1+	c #27AD56",
"2+	c #18A74A",
"3+	c #139C43",
"4+	c #106E31",
"5+	c #083116",
"6+	c #6A9B7B",
"7+	c #96D6AB",
"8+	c #49BB6F",
"9+	c #24AB53",
"0+	c #17A64A",
"a+	c #129A43",
"b+	c #0F6E30",
"c+	c #073116",
"d+	c #000201",
"e+	c #042D15",
"f+	c #042E15",
"g+	c #053015",
"h+	c #063517",
"i+	c #063A19",
"j+	c #063E1A",
"k+	c #07421C",
"l+	c #679A78",
"m+	c #B4D6BE",
"n+	c #8CD2A3",
"o+	c #48BB6E",
"p+	c #1FAB50",
"q+	c #13A346",
"r+	c #119640",
"s+	c #0D7231",
"t+	c #063516",
"u+	c #010804",
"v+	c #052E14",
"w+	c #073F1B",
"x+	c #063718",
"y+	c #042F16",
"z+	c #2B2B2B",
"A+	c #080808",
"B+	c #02170B",
"C+	c #031B0C",
"D+	c #042B12",
"E+	c #285739",
"F+	c #4F8262",
"G+	c #6C957A",
"H+	c #739880",
"I+	c #739980",
"J+	c #7FA88D",
"K+	c #8FBC9E",
"L+	c #9FD0AE",
"M+	c #6DC78A",
"N+	c #31B65E",
"O+	c #19AB4C",
"P+	c #12A345",
"Q+	c #199B47",
"R+	c #3A8E58",
"S+	c #457757",
"T+	c #4D6A57",
"U+	c #61876E",
"V+	c #6C947A",
"W+	c #6C967B",
"X+	c #528865",
"Y+	c #29613D",
"Z+	c #063818",
"`+	c #031D0D",
" @	c #3A3A3A",
".@	c #383838",
"+@	c #202020",
"@@	c #111111",
"#@	c #010703",
"$@	c #04210E",
"%@	c #3F6B4E",
"&@	c #81B694",
"*@	c #9FD1B0",
"=@	c #B7DFC4",
"-@	c #C8E7D2",
";@	c #CBEAD4",
">@	c #AADDBA",
",@	c #86CB9B",
"'@	c #4BBC70",
")@	c #19B04C",
"!@	c #14AB48",
"~@	c #12A446",
"{@	c #22A24F",
"]@	c #65AD7E",
"^@	c #81BC95",
"/@	c #93CDA7",
"(@	c #AFDEBE",
"_@	c #B9E1C6",
":@	c #B1D8BE",
"<@	c #84B897",
"[@	c #407452",
"}@	c #363636",
"|@	c #484848",
"1@	c #535353",
"2@	c #3D3D3D",
"3@	c #090909",
"4@	c #0F311B",
"5@	c #216639",
"6@	c #2B9752",
"7@	c #4CB570",
"8@	c #6DCA8C",
"9@	c #7AD899",
"0@	c #7BDA9A",
"a@	c #74D594",
"b@	c #60C581",
"c@	c #37B662",
"d@	c #14AC49",
"e@	c #13AC49",
"f@	c #12A848",
"g@	c #20AA50",
"h@	c #57BB79",
"i@	c #70CB8E",
"j@	c #7BD799",
"k@	c #7AD999",
"l@	c #56BF7A",
"m@	c #2F9955",
"n@	c #21663A",
"o@	c #10321C",
"p@	c #424242",
"q@	c #6F6F6F",
"r@	c #8B8B8B",
"s@	c #545454",
"t@	c #252525",
"u@	c #0A6129",
"v@	c #1D8140",
"w@	c #319B56",
"x@	c #3BB364",
"y@	c #45C572",
"z@	c #49CD77",
"A@	c #3BBD66",
"B@	c #25B255",
"C@	c #13AB49",
"D@	c #1DAF4E",
"E@	c #2EB658",
"F@	c #4BC66C",
"G@	c #4BC16E",
"H@	c #42B569",
"I@	c #3CA560",
"J@	c #238746",
"K@	c #393939",
"L@	c #7A7A7A",
"M@	c #939393",
"N@	c #959595",
"O@	c #6B6B6B",
"P@	c #4F4F4F",
"Q@	c #121212",
"R@	c #094F22",
"S@	c #0C6C2E",
"T@	c #0F8C3B",
"U@	c #1DAB50",
"V@	c #27C060",
"W@	c #21B955",
"X@	c #19B24E",
"Y@	c #14AC4A",
"Z@	c #19AE4C",
"`@	c #2DB858",
" #	c #40C262",
".#	c #3CC55D",
"+#	c #25AB4C",
"@#	c #0F883A",
"##	c #494949",
"$#	c #6C6C6C",
"%#	c #ADADAD",
"&#	c #A4A4A4",
"*#	c #878787",
"=#	c #777777",
"-#	c #646464",
";#	c #505050",
">#	c #3C3C3C",
",#	c #052B12",
"'#	c #11893C",
")#	c #19A64C",
"!#	c #1FBA57",
"~#	c #2FB859",
"{#	c #45C566",
"]#	c #4AC869",
"^#	c #23A84D",
"/#	c #13893B",
"(#	c #818181",
"_#	c #B7B7B7",
":#	c #A0A0A0",
"<#	c #808080",
"[#	c #656565",
"}#	c #636363",
"|#	c #717171",
"1#	c #767676",
"2#	c #1CA950",
"3#	c #23B355",
"4#	c #2CB756",
"5#	c #3CC35E",
"6#	c #3ABE5D",
"7#	c #2EAD54",
"8#	c #148A3D",
"9#	c #4A4A4A",
"0#	c #A9A9A9",
"a#	c #7F7F7F",
"b#	c #616161",
"c#	c #4E4E4E",
"d#	c #747474",
"e#	c #707070",
"f#	c #575757",
"g#	c #22A34C",
"h#	c #36B95B",
"i#	c #3AC35B",
"j#	c #373737",
"k#	c #B5B5B5",
"l#	c #A7A7A7",
"m#	c #5C5C5C",
"n#	c #464646",
"o#	c #3B3B3B",
"p#	c #434343",
"q#	c #848484",
"r#	c #12883B",
"s#	c #189E45",
"t#	c #18A045",
"u#	c #B4B4B4",
"v#	c #A1A1A1",
"w#	c #474747",
"x#	c #343434",
"y#	c #272727",
"z#	c #525252",
"A#	c #787878",
"B#	c #7D7D7D",
"C#	c #0E8137",
"D#	c #7B7B7B",
"E#	c #9C9C9C",
"F#	c #606060",
"G#	c #292929",
"H#	c #222222",
"I#	c #242424",
"J#	c #2F2F2F",
"K#	c #3E3E3E",
"L#	c #676767",
"M#	c #696969",
"N#	c #6A6A6A",
"O#	c #ACACAC",
"P#	c #A2A2A2",
"Q#	c #4B4B4B",
"R#	c #232323",
"S#	c #515151",
"T#	c #4C4C4C",
"U#	c #084B20",
"V#	c #999999",
"W#	c #9A9A9A",
"X#	c #7E7E7E",
"Y#	c #5E5E5E",
"Z#	c #353535",
"`#	c #2C2C2C",
" $	c #262626",
".$	c #2D2D2D",
"+$	c #333333",
"@$	c #404040",
"#$	c #626262",
"$$	c #686868",
"%$	c #04220F",
"&$	c #1A1A1A",
"*$	c #1B1B1B",
"=$	c #2E2E2E",
"-$	c #282828",
";$	c #414141",
">$	c #1F1F1F",
",$	c #151515",
"'$	c #040404",
")$	c #010101",
"!$	c #3F3F3F",
"~$	c #4D4D4D",
"{$	c #101010",
"]$	c #030303",
"^$	c #070707",
"/$	c #888888",
"($	c #5B5B5B",
"_$	c #1E1E1E",
":$	c #969696",
"<$	c #828282",
"[$	c #6D6D6D",
"}$	c #898989",
"|$	c #5F5F5F",
"1$	c #565656",
"2$	c #0F0F0F",
"3$	c #0A0A0A",
"4$	c #313131",
"5$	c #5A5A5A",
"6$	c #A3A3A3",
"7$	c #A6A6A6",
"8$	c #8E8E8E",
"9$	c #454545",
"0$	c #060606",
"a$	c #666666",
"b$	c #949494",
"c$	c #A8A8A8",
"d$	c #727272",
"e$	c #444444",
"f$	c #0E0E0E",
"g$	c #020202",
"h$	c #AFAFAF",
"i$	c #595959",
"j$	c #161616",
"k$	c #6E6E6E",
"l$	c #9E9E9E",
"m$	c #141414",
"n$	c #181818",
"o$	c #2A2A2A",
"p$	c #838383",
"q$	c #0D0D0D",
"r$	c #7C7C7C",
"s$	c #8F8F8F",
"t$	c #1C1C1C",
"u$	c #585858",
"v$	c #989898",
"w$	c #9F9F9F",
"x$	c #0B0B0B",
"y$	c #868686",
"z$	c #303030",
"A$	c #131313",
"                                        . . . . + @ # $ % & * =                                 ",
"                                        - ; > , ' ) ! ~ { ] ^ /                                 ",
"                                  . . - ( _ : < [ } | 1 2 3 4 5 6 7 7                           ",
"                              . 8 9 0 a b c d e f g h i j k l m n o p q 7                       ",
"                            r s t u v w x y z A B C D E F G . H H I J K L L                     ",
"                          r M N O P Q R S T U V W X Y Z `  ...+.+.@.K J #.$.L                   ",
"                        %.&.*.=.-.;.>.,.'.).!.~.{.I ].^.7 7 7 7 7 7 q p /.` ` (.                ",
"                      . _.:.<.[.}.|.1.2.3.4.5.6.7.7 7                 7 7 8.9.0.a.              ",
"                      . b.c.d.e.|.f.g.h.i.j.6.k.l.                          8. .m.a.            ",
"                    n.o.p.-.;.>.q.r.s.t.u.v.7.l.                              K w.x.7           ",
"                  . y.z.A.B.C.D.E.F.G.H.I.7.7                                   7 7 7           ",
"                  . J.K.L.M.N.O.P.Q.R.S.J l.                                        7 7         ",
"                  T.U.V.W.X.Y.Z.`. +.+++@+7                                                     ",
"                . #+$+%+&+*+=+-+;+>+,+'++.                                                      ",
"                . t )+!+~+{+]+^+/+(+_++.                                                        ",
"                . :+<+[+}+|+1+2+3+4+5+7                                                         ",
"                . :+6+!+7+8+9+0+a+b+c+d+                                                        ",
"e+f+g+h+i+j+6.k+. :+l+m+n+o+p+q+r+s+t+u+v+w+. . w+x+y+              z+A+                        ",
"B+C+D+E+F+$+G+H+I+J+K+L+M+N+O+P+Q+R+S+T+U+V+W+X+Y+Z+`+B+           @.@+@@@                      ",
"7 #@$@%@&@*@=@-@;@e.>@,@'@)@!@~@{@]@^@/@(@_@:@<@[@'++.          }@|@1@2@+@3@                    ",
"    #@4@5@6@7@8@9@0@a@b@c@d@e@f@g@h@i@j@k@l@m@n@o@+.          }@p@q@r@s@.@t@3@                  ",
"      ^.Z u@v@w@x@y@z@A@B@C@e@D@E@F@G@H@I@J@u@Z ^.          K@|@L@M@N@O@P@.@+@Q@                ",
"        +.'+R@S@T@U@V@W@X@Y@Z@`@ #.#+#@#S@R@'++.          }@##$#%#&#*#=#-#;#>#+@3@              ",
"          +.,#,+S@'#)#V@!#Z@~#{#]#^#/#S@,+,#+.          }@p@(#_#:#<#[#}#|#1#;#.@t@3@            ",
"            ^.,#R@S@'#2#3#4#5#6#7#8#S@R@,#^.          K@9#<#:#0#a#b#c#s@[#d#e#f#.@+@Q@          ",
"              +.'+R@S@@#g#h#i#+#@#S@R@'++.          j#9#q@k#l#a#m#n#o#p#;#}#q#|#;#>#+@3@        ",
"                +.,#,+S@r#s#t#/#S@,+,#+.          j#p#a#u#v#a#m#w#x#y#z+2@z#}#A#B#;#.@t@A+      ",
"                  ^.,#R@S@C#C#S@R@,#^.           @9#D#E#l#<#F#n#x#G#H#I#J#K#;#L#1#M#z#.@+@@@    ",
"                    +.'+R@E E R@'++.          j#|@N#O#P#<#F#Q# @G#I#R#R#y#J#p@S#F#=#L#T#o#+@A+  ",
"                      +.,#U#U#,#+.          j#p#q@V#W#X#Y#;###p#Z#`#y# $.$x#+$@$z##$O@$$T#.@I#A+",
"                        ^.%$%$^.          &$*$R#2@1@Q# @z+ $p#Y#s@@$=$-$}@;$z+ $-$J#}@.@-$>$,$'$",
"                          7 7               7 7 7 7 7 7 7 )$!$L@|#s@}@G#K#~$y#{$]$)$7 7 7 7 7 7 ",
"                                                          ^$9#/$A#($2@-$!$S#-${$]$              ",
"                                                          _$m#:$<$F#K#-$!$z#-${$]$              ",
"                                                          +$[$:#}$}#K#z+p@1@G#{$]$              ",
"                                                          +$q@&#*#|$>#j#T#1$G#2$)$              ",
"                                                        o#T#<#l#<#1@x###;#|@&$3$                ",
"          7 7                                          @n#q@N@&#d#w#4$5$S#x#3$7                 ",
"            7 7 7                                   +$9#O@6$7$8$Y#9$p@-###>$0$7                 ",
"            7 7 )$)$                              }@2@a$b$c$:$d$p#e$;#P@J#f$'$                  ",
"              7 g$g$7                           o#p@1$/$h$V#A#s@Z#|@i$Z#j$7                     ",
"                7 g$g$7 7 7                 +$+$T#k$l$c$l$B#z#}@z#5$1@4$m$7                     ",
"                  )$0$j$&$n$A+7 A+o$+$+$+$e$1@O@p$V#0#W#a#i$~$c#m#;#K@*$q$                      ",
"                    3@ $`# $2$q$n$.@;$p#9$m#r$P#O#l#s$L@-#e$S#b#P@}@t$0$                        ",
"                      3@3@2$ $!$u$q@D#p$r@v$v#w$<$F#p#S#a$L#~$.$,$x$0$                          ",
"                        7 A+n$ $.@s@#$O@1#<#y$y$d$m#z#f#i$!$ $Q@0$7                             ",
"                            7 7 A+I#z$.@p#9#S#($5$u$F#1$@$2$7 7                                 ",
"                                  A+3$x$q$2${$Q@Q@Q@A$@@2$                                      "};
