/* XPM */
static char * version_xpm[] = {
"48 48 276 2",
"  	c None",
". 	c #E7B30D",
"+ 	c #E5B00B",
"@ 	c #E3AE0A",
"# 	c #E4B00A",
"$ 	c #E1AC0B",
"% 	c #DFAA0A",
"& 	c #DFA90A",
"* 	c #DCA708",
"= 	c #DBA508",
"- 	c #D8A309",
"; 	c #D6A008",
"> 	c #E7C04E",
", 	c #E4BE4D",
"' 	c #D49E07",
") 	c #DEA90A",
"! 	c #F3E09E",
"~ 	c #F2DE9C",
"{ 	c #D39D07",
"] 	c #D19B07",
"^ 	c #DDAE24",
"/ 	c #FFFADE",
"( 	c #FEF4C0",
"_ 	c #D8A515",
": 	c #D09A07",
"< 	c #CF9807",
"[ 	c #EBCD73",
"} 	c #FFF9D9",
"| 	c #FDEC98",
"1 	c #E6BF3C",
"2 	c #CC9506",
"3 	c #DBA509",
"4 	c #FAEEBE",
"5 	c #FFF7CD",
"6 	c #FBE371",
"7 	c #F6D862",
"8 	c #CA9306",
"9 	c #C89206",
"0 	c #E2BB48",
"a 	c #FFF8D3",
"b 	c #FDEFA6",
"c 	c #FBE16E",
"d 	c #FBE06C",
"e 	c #D9AB25",
"f 	c #C68F05",
"g 	c #D8A209",
"h 	c #F1DC93",
"i 	c #FFF8CE",
"j 	c #FCE47A",
"k 	c #FAE06A",
"l 	c #EAC74A",
"m 	c #C48D04",
"n 	c #C28B04",
"o 	c #D8A820",
"p 	c #FEF2B3",
"q 	c #FADF68",
"r 	c #FADD66",
"s 	c #CB9710",
"t 	c #C28B05",
"u 	c #C08905",
"v 	c #F2BF0E",
"w 	c #F0BD0F",
"x 	c #EEBB0F",
"y 	c #EDB90C",
"z 	c #EBB70C",
"A 	c #E9B50C",
"B 	c #E7B20D",
"C 	c #E8C96A",
"D 	c #FFF7CA",
"E 	c #FDE98E",
"F 	c #FADD64",
"G 	c #DEB333",
"H 	c #BE8704",
"I 	c #BC8503",
"J 	c #B98203",
"K 	c #B78004",
"L 	c #B47D02",
"M 	c #B37C03",
"N 	c #B07903",
"O 	c #AF7803",
"P 	c #AC7502",
"Q 	c #AA7302",
"R 	c #A87102",
"S 	c #A56F02",
"T 	c #A36D02",
"U 	c #A16B02",
"V 	c #9E6902",
"W 	c #9C6601",
"X 	c #F1BE0E",
"Y 	c #EFBB0F",
"Z 	c #EDB90D",
"` 	c #F9EBB1",
" .	c #FFF5BF",
"..	c #FADC61",
"+.	c #F2D154",
"@.	c #A66F02",
"#.	c #A46D02",
"$.	c #9F6902",
"%.	c #9D6702",
"&.	c #9B6501",
"*.	c #E7B51A",
"=.	c #EAC246",
"-.	c #E9C045",
";.	c #E7BE44",
">.	c #ECCD6B",
",.	c #EDD077",
"'.	c #ECCF75",
").	c #F5E3A4",
"!.	c #F4E2A0",
"~.	c #F4E19C",
"{.	c #F6E5A5",
"].	c #FFF6C5",
"^.	c #FDEC9B",
"/.	c #F9DB5F",
"(.	c #F9DA5D",
"_.	c #F1DC79",
":.	c #EDD570",
"<.	c #ECD46B",
"[.	c #EBD366",
"}.	c #D8B542",
"|.	c #D7B43F",
"1.	c #D6B33C",
"2.	c #CFAA32",
"3.	c #BF921D",
"4.	c #BD901D",
"5.	c #BC8F1D",
"6.	c #A97508",
"7.	c #F4DF9E",
"8.	c #FFFCF1",
"9.	c #FFFCEC",
"0.	c #FFFBE7",
"a.	c #FFFBE3",
"b.	c #FEF2B5",
"c.	c #FEF0AB",
"d.	c #FBE273",
"e.	c #F9D95A",
"f.	c #FDEC8A",
"g.	c #FEF08F",
"h.	c #FDEF88",
"i.	c #FDEF82",
"j.	c #FDEE7C",
"k.	c #FCED76",
"l.	c #FCED70",
"m.	c #FCEC6C",
"n.	c #DBBC44",
"o.	c #E9C657",
"p.	c #FEF2B2",
"q.	c #FDEC95",
"r.	c #FDEB92",
"s.	c #FCEA8F",
"t.	c #FCE680",
"u.	c #F9D858",
"v.	c #F9D857",
"w.	c #F9D754",
"x.	c #F8D551",
"y.	c #F8D44E",
"z.	c #F9D651",
"A.	c #F9D953",
"B.	c #F8D84F",
"C.	c #F8D74D",
"D.	c #FADE56",
"E.	c #C49A27",
"F.	c #E1B425",
"G.	c #FAE172",
"H.	c #FBE576",
"I.	c #FBE474",
"J.	c #F8D34C",
"K.	c #F8D249",
"L.	c #F7D146",
"M.	c #F7D043",
"N.	c #F2C93D",
"O.	c #B88511",
"P.	c #DCAC1C",
"Q.	c #F3D760",
"R.	c #E7BD35",
"S.	c #B37F0D",
"T.	c #D39F0E",
"U.	c #F0CF55",
"V.	c #E2B731",
"W.	c #A97306",
"X.	c #E8C345",
"Y.	c #D8AB2A",
"Z.	c #D9AC2A",
"`.	c #C4931A",
" +	c #F7E48C",
".+	c #FCE782",
"++	c #EDC339",
"@+	c #C99819",
"#+	c #FEF3A5",
"$+	c #FCE987",
"%+	c #F7CF41",
"&+	c #F7CE3E",
"*+	c #AC7709",
"=+	c #D7B140",
"-+	c #FEF29F",
";+	c #FBE272",
">+	c #F7CD3B",
",+	c #BF8E17",
"'+	c #E6CA65",
")+	c #FEF29A",
"!+	c #FADB60",
"~+	c #F6CC38",
"{+	c #D4A522",
"]+	c #986302",
"^+	c #C18A05",
"/+	c #F6E487",
"(+	c #FDEE8E",
"_+	c #F6CB35",
":+	c #EBBE2D",
"<+	c #976102",
"[+	c #956002",
"}+	c #C49216",
"|+	c #FEF195",
"1+	c #FCE77A",
"2+	c #EEC640",
"3+	c #BD8B13",
"4+	c #BC8913",
"5+	c #F6CA33",
"6+	c #F6CA30",
"7+	c #A26E07",
"8+	c #945F02",
"9+	c #915D02",
"0+	c #D3AC39",
"a+	c #FAE068",
"b+	c #D2A326",
"c+	c #AF7906",
"d+	c #CC9C1F",
"e+	c #F5C82D",
"f+	c #B88611",
"g+	c #8F5A02",
"h+	c #E3C65A",
"i+	c #EAC23E",
"j+	c #BA8710",
"k+	c #AE7A0B",
"l+	c #E5B729",
"m+	c #F5C829",
"n+	c #CF9E18",
"o+	c #8D5802",
"p+	c #BB8403",
"q+	c #F4E177",
"r+	c #FCEC7C",
"s+	c #F4CF4A",
"t+	c #CFA023",
"u+	c #A46E02",
"v+	c #A26C02",
"w+	c #C08E15",
"x+	c #EFC126",
"y+	c #F5C625",
"z+	c #E8B81C",
"A+	c #8A5602",
"B+	c #885502",
"C+	c #BE8C13",
"D+	c #E4C652",
"E+	c #B8830C",
"F+	c #A67002",
"G+	c #9E6A06",
"H+	c #D5A417",
"I+	c #F4C41B",
"J+	c #986404",
"K+	c #865302",
"L+	c #C59922",
"M+	c #C89E2A",
"N+	c #AB7808",
"O+	c #A37006",
"P+	c #845002",
"Q+	c #A97202",
"R+	c #8F5B02",
"S+	c #814F02",
"T+	c #7F4D02",
"U+	c #7D4B02",
"V+	c #B27B03",
"W+	c #AB7402",
"X+	c #7B4902",
"Y+	c #AD7602",
"Z+	c #784702",
"`+	c #754502",
"                                                                                                ",
"                                                                                                ",
"                                                                                                ",
"                                                                                                ",
"                                              . +                                               ",
"                                              + @                                               ",
"                                            # @ $ %                                             ",
"                                            @ $ & *                                             ",
"                                            $ & * =                                             ",
"                                          $ & * = - ;                                           ",
"                                          & * > , ; '                                           ",
"                                        ) * = ! ~ ' { ]                                         ",
"                                        * = ^ / ( _ : <                                         ",
"                                        = - [ } | 1 < 2                                         ",
"                                      3 - ; 4 5 6 7 2 8 9                                       ",
"                                      - ; 0 a b c d e 9 f                                       ",
"                                    g ; ' h i j d k l f m n                                     ",
"                                    ; ' o i p d k q r s t u                                     ",
"      v w x y z A B + @ $ & * = - ; ' { C D E k q r F G u H I J K L M N O P Q R S T U V W       ",
"      X Y Z z A . + @ $ & * = - ; ' { : `  .k q r F ..+.H I J K L M N O P Q R @.#.U $.%.&.      ",
"        Z z A . *.=.-.;.>.,.'.[ ).!.~.{.].^.q r F ../.(._.:.<.[.}.|.1.2.3.4.5.6.U $.%.&.        ",
"          A . + @ 7.8.9.0.a./ } a i D b.c.d.r F ../.(.e.f.g.h.i.j.k.l.m.m.m.n.U $.%.&.          ",
"            + @ $ & o.p.q.r.s.t.6 c d k q r F ../.(.e.u.v.w.x.y.z.A.B.C.D.E.U $.%.&.            ",
"              $ & * = F.G.H.I.6 c d k q r F ../.(.e.u.v.w.x.y.J.K.L.M.N.O.U $.%.&.              ",
"                  = - ; P.Q.6 c d k q r F ../.(.e.u.v.w.x.y.J.K.L.M.R.S.U $.%.                  ",
"                    ; ' { T.U.d k q r F ../.(.e.u.v.w.x.y.J.K.L.M.V.W.U $.%.                    ",
"                      { : < 2 X.q r F ../.(.e.u.v.w.x.y.J.K.L.M.Y.#.U $.%.                      ",
"                        < 2 8 9 Z.F ../.(.e.u.v.w.x.y.J.K.L.M.`.#.U $.%.                        ",
"                          8 9 f m  +.+(.e.u.v.w.x.y.J.K.L.M.++#.U $.%.                          ",
"                            f m @+#+$+e.u.v.w.x.y.J.K.L.M.%+&+*+$.%.                            ",
"                            m t =+-+;+u.v.w.x.y.J.K.L.M.%+&+>+,+%.&.                            ",
"                            t u '+)+!+v.w.x.y.J.K.L.M.%+&+>+~+{+&.]+                            ",
"                          ^+u H /+(+v.w.x.y.J.K.L.M.%+&+>+~+_+:+]+<+[+                          ",
"                          u H }+|+1+w.x.y.J.2+3+4+++&+>+~+_+5+6+7+8+9+                          ",
"                          H I 0+g.a+x.y.J.b+c+R @.W.d+~+_+5+6+e+f+9+g+                          ",
"                          I J h+h.v.y.i+j+Q R @.#.U $.k+l+6+e+m+n+g+o+                          ",
"                        p+J K q+r+s+t+P Q R @.u+v+$.%.&.]+w+x+y+z+o+A+B+                        ",
"                        J K C+i.D+E+P Q R F+        &.]+<+8+G+H+I+J+B+K+                        ",
"                        K L L+M+O P Q R                 8+9+g+o+N+O+K+P+                        ",
"                        L M N O P Q Q+                    R+o+A+B+K+P+S+                        ",
"                      L M N O P Q                             B+K+P+S+T+U+                      ",
"                      V+N O P W+                                P+S+T+U+X+                      ",
"                      N O Y+                                        U+X+Z+                      ",
"                      O                                                 `+                      ",
"                                                                                                ",
"                                                                                                ",
"                                                                                                ",
"                                                                                                "};
