/* XPM */
static char * winmine_xpm[] = {
"16 16 59 1",
" 	c None",
".	c #000000",
"+	c #FEA300",
"@	c #090900",
"#	c #515151",
"$	c #929994",
"%	c #212823",
"&	c #8BB698",
"*	c #C5E9D6",
"=	c #C6EBD8",
"-	c #6A8C73",
";	c #1B2A1E",
">	c #73987C",
",	c #E4FBF2",
"'	c #FAFAFA",
")	c #F9FAFA",
"!	c #CDF2DE",
"~	c #364C3B",
"{	c #213225",
"]	c #97BDA6",
"^	c #F7FAFA",
"/	c #FCFCFC",
"(	c #FBFBFB",
"_	c #D8F9E7",
":	c #3F5845",
"<	c #364B3B",
"[	c #4D6553",
"}	c #93BBA1",
"|	c #F3FAFA",
"1	c #F3FAF9",
"2	c #A1CCB0",
"3	c #2E4333",
"4	c #55725C",
"5	c #8ABC97",
"6	c #3E5743",
"7	c #B6E1C7",
"8	c #CCF0DD",
"9	c #98C3A6",
"0	c #3B5341",
"a	c #2C4031",
"b	c #84B18F",
"c	c #82B08E",
"d	c #0F1B12",
"e	c #243628",
"f	c #374C3C",
"g	c #2F4434",
"h	c #3B5240",
"i	c #739B7D",
"j	c #B9F4CB",
"k	c #3F5045",
"l	c #688A70",
"m	c #92C39E",
"n	c #B3EAC4",
"o	c #CAFDE0",
"p	c #799385",
"q	c #729D7D",
"r	c #A1C9B3",
"s	c #92B2A2",
"t	c #43524B",
"                ",
"                ",
"         .  +   ",
"          .@    ",
"       #        ",
"       $%       ",
"     &*=-;      ",
"    >,')!~{     ",
"    ]^/(_:<[    ",
"    }|'12345    ",
"    67890abc    ",
"    defghijk    ",
"     ~lmnop     ",
"      qrst      ",
"                ",
"                "};
