/* XPM */
static char * logo_16x16_xpm[] = {
"16 16 67 1",
" 	c None",
".	c #F6F2F5",
"+	c #EEEDEE",
"@	c #F1EEF1",
"#	c #F1F0F1",
"$	c #E0DBDD",
"%	c #B15858",
"&	c #CC6262",
"*	c #B95454",
"=	c #C75C5C",
"-	c #A43F3F",
";	c #A25252",
">	c #DFDCDD",
",	c #BB8F8F",
"'	c #AF3737",
")	c #B53737",
"!	c #CB3333",
"~	c #CF2020",
"{	c #CD3030",
"]	c #C84545",
"^	c #C06161",
"/	c #C08A8A",
"(	c #D8C0C0",
"_	c #B38686",
":	c #821D1D",
"<	c #991919",
"[	c #A11A1A",
"}	c #B22121",
"|	c #AD3030",
"1	c #A26060",
"2	c #D8BFBF",
"3	c #B48383",
"4	c #711D1D",
"5	c #751A1A",
"6	c #702323",
"7	c #663B3B",
"8	c #C1A8A8",
"9	c #AF7C7C",
"0	c #4D1C1C",
"a	c #372727",
"b	c #A79494",
"c	c #AA7676",
"d	c #978A8A",
"e	c #CAC9CA",
"f	c #8C8787",
"g	c #9D9D9D",
"h	c #52494A",
"i	c #817F81",
"j	c #3D3536",
"k	c #6C6B6C",
"l	c #685555",
"m	c #2F2A2B",
"n	c #5B5A5B",
"o	c #564848",
"p	c #2B2A2A",
"q	c #555455",
"r	c #151515",
"s	c #483E3E",
"t	c #383637",
"u	c #525252",
"v	c #0D0D0D",
"w	c #3D3636",
"x	c #3F3F3F",
"y	c #4B4B4B",
"z	c #090909",
"A	c #343030",
"B	c #444143",
".              +",
" @            # ",
"  $%&*=-;    >  ",
"   ,')!~{]^/(   ",
"    _:<[}|12    ",
"     345678     ",
"      90ab      ",
"       cd       ",
"       ef       ",
"      g  h      ",
"     i    j     ",
"    k     lm    ",
"   n       op   ",
"  qr        st  ",
" uv          wx ",
"yz            AB"};
